# fence_gate_3m — procedural low-poly modular fence
mtllib fence_materials.mtl
o fence_gate_posts_3m
v -0.100000 0.000000 -0.100000
v 0.100000 0.000000 -0.100000
v 0.100000 1.600000 -0.100000
v -0.100000 1.600000 -0.100000
v -0.100000 0.000000 0.100000
v 0.100000 0.000000 0.100000
v 0.118000 1.600000 0.088000
v -0.082000 1.600000 0.088000
v -0.107500 1.600000 -0.107500
v 0.107500 1.600000 -0.107500
v 0.107500 1.600000 0.107500
v -0.107500 1.600000 0.107500
v 0.000000 1.760000 0.000000
v 2.900000 0.000000 -0.100000
v 3.100000 0.000000 -0.100000
v 3.100000 1.580000 -0.100000
v 2.900000 1.580000 -0.100000
v 2.900000 0.000000 0.100000
v 3.100000 0.000000 0.100000
v 3.118000 1.580000 0.088000
v 2.918000 1.580000 0.088000
v 2.892500 1.580000 -0.107500
v 3.107500 1.580000 -0.107500
v 3.107500 1.580000 0.107500
v 2.892500 1.580000 0.107500
v 3.000000 1.740000 0.000000
v 0.170000 1.200000 -0.080000
v 2.830000 1.200000 -0.080000
v 2.830000 1.340000 -0.080000
v 0.170000 1.340000 -0.080000
v 0.170000 1.200000 0.060000
v 2.830000 1.200000 0.060000
v 2.830000 1.340000 0.060000
v 0.170000 1.340000 0.060000
v 0.170000 0.300000 -0.080000
v 2.830000 0.300000 -0.080000
v 2.830000 0.440000 -0.080000
v 0.170000 0.440000 -0.080000
v 0.170000 0.300000 0.060000
v 2.830000 0.300000 0.060000
v 2.830000 0.440000 0.060000
v 0.170000 0.440000 0.060000
v 0.150000 0.300000 -0.080000
v 0.290000 0.300000 -0.080000
v 0.290000 1.340000 -0.080000
v 0.150000 1.340000 -0.080000
v 0.150000 0.300000 0.060000
v 0.290000 0.300000 0.060000
v 0.290000 1.340000 0.060000
v 0.150000 1.340000 0.060000
v 2.710000 0.300000 -0.080000
v 2.850000 0.300000 -0.080000
v 2.850000 1.340000 -0.080000
v 2.710000 1.340000 -0.080000
v 2.710000 0.300000 0.060000
v 2.850000 0.300000 0.060000
v 2.850000 1.340000 0.060000
v 2.710000 1.340000 0.060000
v 0.247462 0.312802 -0.145000
v 2.792594 1.214081 -0.145000
v 2.752538 1.327198 -0.145000
v 0.207406 0.425919 -0.145000
v 0.247462 0.312802 -0.055000
v 2.792594 1.214081 -0.055000
v 2.752538 1.327198 -0.055000
v 0.207406 0.425919 -0.055000
v 0.355004 0.250829 -0.152500
v 0.544996 0.249171 -0.152500
v 0.554596 1.349129 -0.152500
v 0.461170 1.529951 -0.152500
v 0.364603 1.350787 -0.152500
v 0.355004 0.250829 -0.067500
v 0.544996 0.249171 -0.067500
v 0.554596 1.349129 -0.067500
v 0.461170 1.529951 -0.067500
v 0.364603 1.350787 -0.067500
v 0.765007 0.248839 -0.152500
v 0.954993 0.251161 -0.152500
v 0.941554 1.351079 -0.152500
v 0.844362 1.529904 -0.152500
v 0.751568 1.348757 -0.152500
v 0.765007 0.248839 -0.067500
v 0.954993 0.251161 -0.067500
v 0.941554 1.351079 -0.067500
v 0.844362 1.529904 -0.067500
v 0.751568 1.348757 -0.067500
v 1.175009 0.251326 -0.152500
v 1.364991 0.248674 -0.152500
v 1.380349 1.348566 -0.152500
v 1.287872 1.529875 -0.152500
v 1.190368 1.351219 -0.152500
v 1.175009 0.251326 -0.067500
v 1.364991 0.248674 -0.067500
v 1.380349 1.348566 -0.067500
v 1.287872 1.529875 -0.067500
v 1.190368 1.351219 -0.067500
v 1.585002 0.249337 -0.152500
v 1.774998 0.250663 -0.152500
v 1.767318 1.350636 -0.152500
v 1.671064 1.529969 -0.152500
v 1.577323 1.349310 -0.152500
v 1.585002 0.249337 -0.067500
v 1.774998 0.250663 -0.067500
v 1.767318 1.350636 -0.067500
v 1.671064 1.529969 -0.067500
v 1.577323 1.349310 -0.067500
v 1.995002 0.250663 -0.152500
v 2.184998 0.249337 -0.152500
v 2.192677 1.349310 -0.152500
v 2.098936 1.529969 -0.152500
v 2.002682 1.350636 -0.152500
v 1.995002 0.250663 -0.067500
v 2.184998 0.249337 -0.067500
v 2.192677 1.349310 -0.067500
v 2.098936 1.529969 -0.067500
v 2.002682 1.350636 -0.067500
v 2.405005 0.249005 -0.152500
v 2.594995 0.250995 -0.152500
v 2.583476 1.350935 -0.152500
v 2.486596 1.529930 -0.152500
v 2.393486 1.348945 -0.152500
v 2.405005 0.249005 -0.067500
v 2.594995 0.250995 -0.067500
v 2.583476 1.350935 -0.067500
v 2.486596 1.529930 -0.067500
v 2.393486 1.348945 -0.067500
v 0.130000 0.440000 -0.207500
v 0.230000 0.440000 -0.207500
v 0.230000 0.600000 -0.207500
v 0.130000 0.600000 -0.207500
v 0.130000 0.440000 -0.172500
v 0.230000 0.440000 -0.172500
v 0.230000 0.600000 -0.172500
v 0.130000 0.600000 -0.172500
v 0.155000 0.520000 -0.290000
v 0.144749 0.544749 -0.290000
v 0.120000 0.555000 -0.290000
v 0.095251 0.544749 -0.290000
v 0.085000 0.520000 -0.290000
v 0.095251 0.495251 -0.290000
v 0.120000 0.485000 -0.290000
v 0.144749 0.495251 -0.290000
v 0.155000 0.520000 -0.090000
v 0.144749 0.544749 -0.090000
v 0.120000 0.555000 -0.090000
v 0.095251 0.544749 -0.090000
v 0.085000 0.520000 -0.090000
v 0.095251 0.495251 -0.090000
v 0.120000 0.485000 -0.090000
v 0.144749 0.495251 -0.090000
v 0.130000 1.020000 -0.207500
v 0.230000 1.020000 -0.207500
v 0.230000 1.180000 -0.207500
v 0.130000 1.180000 -0.207500
v 0.130000 1.020000 -0.172500
v 0.230000 1.020000 -0.172500
v 0.230000 1.180000 -0.172500
v 0.130000 1.180000 -0.172500
v 0.155000 1.100000 -0.290000
v 0.144749 1.124749 -0.290000
v 0.120000 1.135000 -0.290000
v 0.095251 1.124749 -0.290000
v 0.085000 1.100000 -0.290000
v 0.095251 1.075251 -0.290000
v 0.120000 1.065000 -0.290000
v 0.144749 1.075251 -0.290000
v 0.155000 1.100000 -0.090000
v 0.144749 1.124749 -0.090000
v 0.120000 1.135000 -0.090000
v 0.095251 1.124749 -0.090000
v 0.085000 1.100000 -0.090000
v 0.095251 1.075251 -0.090000
v 0.120000 1.065000 -0.090000
v 0.144749 1.075251 -0.090000
v 2.750000 0.860000 -0.207500
v 2.890000 0.860000 -0.207500
v 2.890000 0.980000 -0.207500
v 2.750000 0.980000 -0.207500
v 2.750000 0.860000 -0.172500
v 2.890000 0.860000 -0.172500
v 2.890000 0.980000 -0.172500
v 2.750000 0.980000 -0.172500
v 2.540000 0.897500 -0.252500
v 2.860000 0.897500 -0.252500
v 2.860000 0.942500 -0.252500
v 2.540000 0.942500 -0.252500
v 2.540000 0.897500 -0.207500
v 2.860000 0.897500 -0.207500
v 2.860000 0.942500 -0.207500
v 2.540000 0.942500 -0.207500
g post_left_shaft
usemtl Wood_Dark
s off
f 1 4 3 2
f 5 6 7 8
f 1 2 6 5
f 4 8 7 3
f 2 3 7 6
f 1 5 8 4
g post_left_cap
usemtl Wood_Cut
s off
f 9 12 11 10
f 9 10 13
f 10 11 13
f 11 12 13
f 12 9 13
g post_right_shaft
usemtl Wood_Dark
s off
f 14 17 16 15
f 18 19 20 21
f 14 15 19 18
f 17 21 20 16
f 15 16 20 19
f 14 18 21 17
g post_right_cap
usemtl Wood_Cut
s off
f 22 25 24 23
f 22 23 26
f 23 24 26
f 24 25 26
f 25 22 26
s off
s off
s off
s off
s off
s off
s off
s off
s off
s off
s off
s off
s off
s off
s off
s off
s off
