# fence_post — procedural low-poly modular fence
mtllib fence_materials.mtl
o fence_post
v -0.100000 0.000000 -0.100000
v 0.100000 0.000000 -0.100000
v 0.100000 1.520000 -0.100000
v -0.100000 1.520000 -0.100000
v -0.100000 0.000000 0.100000
v 0.100000 0.000000 0.100000
v 0.118000 1.520000 0.088000
v -0.082000 1.520000 0.088000
v -0.107500 1.520000 -0.107500
v 0.107500 1.520000 -0.107500
v 0.107500 1.520000 0.107500
v -0.107500 1.520000 0.107500
v 0.000000 1.680000 0.000000
g post_shaft
usemtl Wood_Dark
s off
f 1 4 3 2
f 5 6 7 8
f 1 2 6 5
f 4 8 7 3
f 2 3 7 6
f 1 5 8 4
g post_cap
usemtl Wood_Cut
s off
f 9 12 11 10
f 9 10 13
f 10 11 13
f 11 12 13
f 12 9 13
