# fence_broken_3m — procedural low-poly modular fence
mtllib fence_materials.mtl
o fence_broken_3m
v -0.100000 0.000000 -0.100000
v 0.100000 0.000000 -0.100000
v 0.100000 1.520000 -0.100000
v -0.100000 1.520000 -0.100000
v -0.100000 0.000000 0.100000
v 0.100000 0.000000 0.100000
v 0.118000 1.520000 0.088000
v -0.082000 1.520000 0.088000
v -0.107500 1.520000 -0.107500
v 0.107500 1.520000 -0.107500
v 0.107500 1.520000 0.107500
v -0.107500 1.520000 0.107500
v 0.000000 1.680000 0.000000
v 2.900000 0.000000 -0.100000
v 3.100000 0.000000 -0.100000
v 3.100000 1.480000 -0.100000
v 2.900000 1.480000 -0.100000
v 2.900000 0.000000 0.100000
v 3.100000 0.000000 0.100000
v 3.118000 1.480000 0.088000
v 2.918000 1.480000 0.088000
v 2.892500 1.480000 -0.107500
v 3.107500 1.480000 -0.107500
v 3.107500 1.480000 0.107500
v 2.892500 1.480000 0.107500
v 3.000000 1.640000 0.000000
v 0.048085 0.535281 -0.060000
v 1.207378 0.494798 -0.060000
v 1.211915 0.624719 -0.060000
v 0.052622 0.665202 -0.060000
v 0.048085 0.535281 0.060000
v 1.207378 0.494798 0.060000
v 1.211915 0.624719 0.060000
v 0.052622 0.665202 0.060000
v 1.762853 0.385133 -0.060000
v 2.908477 0.485362 -0.060000
v 2.897147 0.614867 -0.060000
v 1.751523 0.514638 -0.060000
v 1.762853 0.385133 0.060000
v 2.908477 0.485362 0.060000
v 2.897147 0.614867 0.060000
v 1.751523 0.514638 0.060000
v 0.047594 0.996368 -0.060000
v 1.116943 1.033711 -0.060000
v 1.112406 1.163632 -0.060000
v 0.043057 1.126289 -0.060000
v 0.047594 0.996368 0.060000
v 1.116943 1.033711 0.060000
v 1.112406 1.163632 0.060000
v 0.043057 1.126289 0.060000
v 1.756327 0.984950 -0.060000
v 2.887830 0.846019 -0.060000
v 2.903673 0.975050 -0.060000
v 1.772170 1.113981 -0.060000
v 1.756327 0.984950 0.060000
v 2.887830 0.846019 0.060000
v 2.903673 0.975050 0.060000
v 1.772170 1.113981 0.060000
v 0.250015 0.121745 -0.142500
v 0.449985 0.118255 -0.142500
v 0.469182 1.218087 -0.142500
v 0.372339 1.399805 -0.142500
v 0.269213 1.221578 -0.142500
v 0.250015 0.121745 -0.057500
v 0.449985 0.118255 -0.057500
v 0.469182 1.218087 -0.057500
v 0.372339 1.399805 -0.057500
v 0.269213 1.221578 -0.057500
v 0.680026 0.117731 -0.142500
v 0.879974 0.122269 -0.142500
v 0.853203 1.301965 -0.142500
v 0.749145 1.479650 -0.142500
v 0.653255 1.297428 -0.142500
v 0.680026 0.117731 -0.057500
v 0.879974 0.122269 -0.057500
v 0.853203 1.301965 -0.057500
v 0.749145 1.479650 -0.057500
v 0.653255 1.297428 -0.057500
v 1.100156 0.125582 -0.142500
v 1.299844 0.114418 -0.142500
v 1.332221 0.693513 -0.142500
v 1.242424 0.878815 -0.142500
v 1.132532 0.704678 -0.142500
v 1.100156 0.125582 -0.057500
v 1.299844 0.114418 -0.057500
v 1.332221 0.693513 -0.057500
v 1.242424 0.878815 -0.057500
v 1.132532 0.704678 -0.057500
v 1.750308 0.112154 -0.142500
v 1.949692 0.127846 -0.142500
v 1.877509 1.045010 -0.142500
v 1.763695 1.216609 -0.142500
v 1.678126 1.029318 -0.142500
v 1.750308 0.112154 -0.057500
v 1.949692 0.127846 -0.057500
v 1.877509 1.045010 -0.057500
v 1.763695 1.216609 -0.057500
v 1.678126 1.029318 -0.057500
v 2.210049 0.123141 -0.142500
v 2.409951 0.116859 -0.142500
v 2.444502 1.216316 -0.142500
v 2.350206 1.399368 -0.142500
v 2.244601 1.222598 -0.142500
v 2.210049 0.123141 -0.057500
v 2.409951 0.116859 -0.057500
v 2.444502 1.216316 -0.057500
v 2.350206 1.399368 -0.057500
v 2.244601 1.222598 -0.057500
v 2.570074 0.116161 -0.142500
v 2.769926 0.123839 -0.142500
v 2.731538 1.123102 -0.142500
v 2.624702 1.299130 -0.142500
v 2.531686 1.115424 -0.142500
v 2.570074 0.116161 -0.057500
v 2.769926 0.123839 -0.057500
v 2.731538 1.123102 -0.057500
v 2.624702 1.299130 -0.057500
v 2.531686 1.115424 -0.057500
g post_left_shaft
usemtl Wood_Dark
s off
f 1 4 3 2
f 5 6 7 8
f 1 2 6 5
f 4 8 7 3
f 2 3 7 6
f 1 5 8 4
g post_left_cap
usemtl Wood_Cut
s off
f 9 12 11 10
f 9 10 13
f 10 11 13
f 11 12 13
f 12 9 13
g post_right_shaft
usemtl Wood_Dark
s off
f 14 17 16 15
f 18 19 20 21
f 14 15 19 18
f 17 21 20 16
f 15 16 20 19
f 14 18 21 17
g post_right_cap
usemtl Wood_Cut
s off
f 22 25 24 23
f 22 23 26
f 23 24 26
f 24 25 26
f 25 22 26
g rail_low_left
usemtl Wood_Dark
s off
f 27 30 29 28
f 31 32 33 34
f 27 28 32 31
f 30 34 33 29
f 28 29 33 32
f 27 31 34 30
g rail_low_right
usemtl Wood_Dark
s off
f 35 38 37 36
f 39 40 41 42
f 35 36 40 39
f 38 42 41 37
f 36 37 41 40
f 35 39 42 38
g rail_high_left
usemtl Wood_Dark
s off
f 43 46 45 44
f 47 48 49 50
f 43 44 48 47
f 46 50 49 45
f 44 45 49 48
f 43 47 50 46
g rail_high_right
usemtl Wood_Dark
s off
f 51 54 53 52
f 55 56 57 58
f 51 52 56 55
f 54 58 57 53
f 52 53 57 56
f 51 55 58 54
g picket_1
usemtl Wood_Mid
s off
f 59 63 62 61 60
f 64 65 66 67 68
f 59 60 65 64
f 60 61 66 65
f 61 62 67 66
f 62 63 68 67
f 63 59 64 68
g picket_2
usemtl Wood_Light
s off
f 69 73 72 71 70
f 74 75 76 77 78
f 69 70 75 74
f 70 71 76 75
f 71 72 77 76
f 72 73 78 77
f 73 69 74 78
g picket_3
usemtl Wood_Mid
s off
f 79 83 82 81 80
f 84 85 86 87 88
f 79 80 85 84
f 80 81 86 85
f 81 82 87 86
f 82 83 88 87
f 83 79 84 88
g picket_4
usemtl Wood_Dark
s off
f 89 93 92 91 90
f 94 95 96 97 98
f 89 90 95 94
f 90 91 96 95
f 91 92 97 96
f 92 93 98 97
f 93 89 94 98
g picket_5
usemtl Wood_Light
s off
f 99 103 102 101 100
f 104 105 106 107 108
f 99 100 105 104
f 100 101 106 105
f 101 102 107 106
f 102 103 108 107
f 103 99 104 108
g picket_6
usemtl Wood_Mid
s off
f 109 113 112 111 110
f 114 115 116 117 118
f 109 110 115 114
f 110 111 116 115
f 111 112 117 116
f 112 113 118 117
f 113 109 114 118
