# fence_gate_3m — procedural low-poly modular fence
mtllib fence_materials.mtl
o fence_gate_leaf_3m
v -0.100000 0.000000 -0.100000
v 0.100000 0.000000 -0.100000
v 0.100000 1.600000 -0.100000
v -0.100000 1.600000 -0.100000
v -0.100000 0.000000 0.100000
v 0.100000 0.000000 0.100000
v 0.118000 1.600000 0.088000
v -0.082000 1.600000 0.088000
v -0.107500 1.600000 -0.107500
v 0.107500 1.600000 -0.107500
v 0.107500 1.600000 0.107500
v -0.107500 1.600000 0.107500
v 0.000000 1.760000 0.000000
v 2.900000 0.000000 -0.100000
v 3.100000 0.000000 -0.100000
v 3.100000 1.580000 -0.100000
v 2.900000 1.580000 -0.100000
v 2.900000 0.000000 0.100000
v 3.100000 0.000000 0.100000
v 3.118000 1.580000 0.088000
v 2.918000 1.580000 0.088000
v 2.892500 1.580000 -0.107500
v 3.107500 1.580000 -0.107500
v 3.107500 1.580000 0.107500
v 2.892500 1.580000 0.107500
v 3.000000 1.740000 0.000000
v 0.170000 1.200000 -0.080000
v 2.830000 1.200000 -0.080000
v 2.830000 1.340000 -0.080000
v 0.170000 1.340000 -0.080000
v 0.170000 1.200000 0.060000
v 2.830000 1.200000 0.060000
v 2.830000 1.340000 0.060000
v 0.170000 1.340000 0.060000
v 0.170000 0.300000 -0.080000
v 2.830000 0.300000 -0.080000
v 2.830000 0.440000 -0.080000
v 0.170000 0.440000 -0.080000
v 0.170000 0.300000 0.060000
v 2.830000 0.300000 0.060000
v 2.830000 0.440000 0.060000
v 0.170000 0.440000 0.060000
v 0.150000 0.300000 -0.080000
v 0.290000 0.300000 -0.080000
v 0.290000 1.340000 -0.080000
v 0.150000 1.340000 -0.080000
v 0.150000 0.300000 0.060000
v 0.290000 0.300000 0.060000
v 0.290000 1.340000 0.060000
v 0.150000 1.340000 0.060000
v 2.710000 0.300000 -0.080000
v 2.850000 0.300000 -0.080000
v 2.850000 1.340000 -0.080000
v 2.710000 1.340000 -0.080000
v 2.710000 0.300000 0.060000
v 2.850000 0.300000 0.060000
v 2.850000 1.340000 0.060000
v 2.710000 1.340000 0.060000
v 0.247462 0.312802 -0.145000
v 2.792594 1.214081 -0.145000
v 2.752538 1.327198 -0.145000
v 0.207406 0.425919 -0.145000
v 0.247462 0.312802 -0.055000
v 2.792594 1.214081 -0.055000
v 2.752538 1.327198 -0.055000
v 0.207406 0.425919 -0.055000
v 0.355004 0.250829 -0.152500
v 0.544996 0.249171 -0.152500
v 0.554596 1.349129 -0.152500
v 0.461170 1.529951 -0.152500
v 0.364603 1.350787 -0.152500
v 0.355004 0.250829 -0.067500
v 0.544996 0.249171 -0.067500
v 0.554596 1.349129 -0.067500
v 0.461170 1.529951 -0.067500
v 0.364603 1.350787 -0.067500
v 0.765007 0.248839 -0.152500
v 0.954993 0.251161 -0.152500
v 0.941554 1.351079 -0.152500
v 0.844362 1.529904 -0.152500
v 0.751568 1.348757 -0.152500
v 0.765007 0.248839 -0.067500
v 0.954993 0.251161 -0.067500
v 0.941554 1.351079 -0.067500
v 0.844362 1.529904 -0.067500
v 0.751568 1.348757 -0.067500
v 1.175009 0.251326 -0.152500
v 1.364991 0.248674 -0.152500
v 1.380349 1.348566 -0.152500
v 1.287872 1.529875 -0.152500
v 1.190368 1.351219 -0.152500
v 1.175009 0.251326 -0.067500
v 1.364991 0.248674 -0.067500
v 1.380349 1.348566 -0.067500
v 1.287872 1.529875 -0.067500
v 1.190368 1.351219 -0.067500
v 1.585002 0.249337 -0.152500
v 1.774998 0.250663 -0.152500
v 1.767318 1.350636 -0.152500
v 1.671064 1.529969 -0.152500
v 1.577323 1.349310 -0.152500
v 1.585002 0.249337 -0.067500
v 1.774998 0.250663 -0.067500
v 1.767318 1.350636 -0.067500
v 1.671064 1.529969 -0.067500
v 1.577323 1.349310 -0.067500
v 1.995002 0.250663 -0.152500
v 2.184998 0.249337 -0.152500
v 2.192677 1.349310 -0.152500
v 2.098936 1.529969 -0.152500
v 2.002682 1.350636 -0.152500
v 1.995002 0.250663 -0.067500
v 2.184998 0.249337 -0.067500
v 2.192677 1.349310 -0.067500
v 2.098936 1.529969 -0.067500
v 2.002682 1.350636 -0.067500
v 2.405005 0.249005 -0.152500
v 2.594995 0.250995 -0.152500
v 2.583476 1.350935 -0.152500
v 2.486596 1.529930 -0.152500
v 2.393486 1.348945 -0.152500
v 2.405005 0.249005 -0.067500
v 2.594995 0.250995 -0.067500
v 2.583476 1.350935 -0.067500
v 2.486596 1.529930 -0.067500
v 2.393486 1.348945 -0.067500
v 0.130000 0.440000 -0.207500
v 0.230000 0.440000 -0.207500
v 0.230000 0.600000 -0.207500
v 0.130000 0.600000 -0.207500
v 0.130000 0.440000 -0.172500
v 0.230000 0.440000 -0.172500
v 0.230000 0.600000 -0.172500
v 0.130000 0.600000 -0.172500
v 0.155000 0.520000 -0.290000
v 0.144749 0.544749 -0.290000
v 0.120000 0.555000 -0.290000
v 0.095251 0.544749 -0.290000
v 0.085000 0.520000 -0.290000
v 0.095251 0.495251 -0.290000
v 0.120000 0.485000 -0.290000
v 0.144749 0.495251 -0.290000
v 0.155000 0.520000 -0.090000
v 0.144749 0.544749 -0.090000
v 0.120000 0.555000 -0.090000
v 0.095251 0.544749 -0.090000
v 0.085000 0.520000 -0.090000
v 0.095251 0.495251 -0.090000
v 0.120000 0.485000 -0.090000
v 0.144749 0.495251 -0.090000
v 0.130000 1.020000 -0.207500
v 0.230000 1.020000 -0.207500
v 0.230000 1.180000 -0.207500
v 0.130000 1.180000 -0.207500
v 0.130000 1.020000 -0.172500
v 0.230000 1.020000 -0.172500
v 0.230000 1.180000 -0.172500
v 0.130000 1.180000 -0.172500
v 0.155000 1.100000 -0.290000
v 0.144749 1.124749 -0.290000
v 0.120000 1.135000 -0.290000
v 0.095251 1.124749 -0.290000
v 0.085000 1.100000 -0.290000
v 0.095251 1.075251 -0.290000
v 0.120000 1.065000 -0.290000
v 0.144749 1.075251 -0.290000
v 0.155000 1.100000 -0.090000
v 0.144749 1.124749 -0.090000
v 0.120000 1.135000 -0.090000
v 0.095251 1.124749 -0.090000
v 0.085000 1.100000 -0.090000
v 0.095251 1.075251 -0.090000
v 0.120000 1.065000 -0.090000
v 0.144749 1.075251 -0.090000
v 2.750000 0.860000 -0.207500
v 2.890000 0.860000 -0.207500
v 2.890000 0.980000 -0.207500
v 2.750000 0.980000 -0.207500
v 2.750000 0.860000 -0.172500
v 2.890000 0.860000 -0.172500
v 2.890000 0.980000 -0.172500
v 2.750000 0.980000 -0.172500
v 2.540000 0.897500 -0.252500
v 2.860000 0.897500 -0.252500
v 2.860000 0.942500 -0.252500
v 2.540000 0.942500 -0.252500
v 2.540000 0.897500 -0.207500
v 2.860000 0.897500 -0.207500
v 2.860000 0.942500 -0.207500
v 2.540000 0.942500 -0.207500
s off
s off
s off
s off
g gate_top
usemtl Wood_Dark
s off
f 27 30 29 28
f 31 32 33 34
f 27 28 32 31
f 30 34 33 29
f 28 29 33 32
f 27 31 34 30
g gate_bottom
usemtl Wood_Dark
s off
f 35 38 37 36
f 39 40 41 42
f 35 36 40 39
f 38 42 41 37
f 36 37 41 40
f 35 39 42 38
g gate_left
usemtl Wood_Dark
s off
f 43 46 45 44
f 47 48 49 50
f 43 44 48 47
f 46 50 49 45
f 44 45 49 48
f 43 47 50 46
g gate_right
usemtl Wood_Dark
s off
f 51 54 53 52
f 55 56 57 58
f 51 52 56 55
f 54 58 57 53
f 52 53 57 56
f 51 55 58 54
g diagonal_brace
usemtl Wood_Mid
s off
f 59 62 61 60
f 63 64 65 66
f 59 60 64 63
f 62 66 65 61
f 60 61 65 64
f 59 63 66 62
g gate_picket_1
usemtl Wood_Mid
s off
f 67 71 70 69 68
f 72 73 74 75 76
f 67 68 73 72
f 68 69 74 73
f 69 70 75 74
f 70 71 76 75
f 71 67 72 76
g gate_picket_2
usemtl Wood_Light
s off
f 77 81 80 79 78
f 82 83 84 85 86
f 77 78 83 82
f 78 79 84 83
f 79 80 85 84
f 80 81 86 85
f 81 77 82 86
g gate_picket_3
usemtl Wood_Mid
s off
f 87 91 90 89 88
f 92 93 94 95 96
f 87 88 93 92
f 88 89 94 93
f 89 90 95 94
f 90 91 96 95
f 91 87 92 96
g gate_picket_4
usemtl Wood_Mid
s off
f 97 101 100 99 98
f 102 103 104 105 106
f 97 98 103 102
f 98 99 104 103
f 99 100 105 104
f 100 101 106 105
f 101 97 102 106
g gate_picket_5
usemtl Wood_Light
s off
f 107 111 110 109 108
f 112 113 114 115 116
f 107 108 113 112
f 108 109 114 113
f 109 110 115 114
f 110 111 116 115
f 111 107 112 116
g gate_picket_6
usemtl Wood_Mid
s off
f 117 121 120 119 118
f 122 123 124 125 126
f 117 118 123 122
f 118 119 124 123
f 119 120 125 124
f 120 121 126 125
f 121 117 122 126
g hinge_plate_1
usemtl Iron
s off
f 127 130 129 128
f 131 132 133 134
f 127 128 132 131
f 130 134 133 129
f 128 129 133 132
f 127 131 134 130
g hinge_pin_1
usemtl Iron
s off
f 142 141 140 139 138 137 136 135
f 143 144 145 146 147 148 149 150
f 135 136 144 143
f 136 137 145 144
f 137 138 146 145
f 138 139 147 146
f 139 140 148 147
f 140 141 149 148
f 141 142 150 149
f 142 135 143 150
g hinge_plate_2
usemtl Iron
s off
f 151 154 153 152
f 155 156 157 158
f 151 152 156 155
f 154 158 157 153
f 152 153 157 156
f 151 155 158 154
g hinge_pin_2
usemtl Iron
s off
f 166 165 164 163 162 161 160 159
f 167 168 169 170 171 172 173 174
f 159 160 168 167
f 160 161 169 168
f 161 162 170 169
f 162 163 171 170
f 163 164 172 171
f 164 165 173 172
f 165 166 174 173
f 166 159 167 174
g latch_plate
usemtl Iron
s off
f 175 178 177 176
f 179 180 181 182
f 175 176 180 179
f 178 182 181 177
f 176 177 181 180
f 175 179 182 178
g latch_handle
usemtl Iron
s off
f 183 186 185 184
f 187 188 189 190
f 183 184 188 187
f 186 190 189 185
f 184 185 189 188
f 183 187 190 186
