# fence_corner_3m — procedural low-poly modular fence
mtllib fence_materials.mtl
o fence_corner_3m
v -0.100000 0.000000 -0.100000
v 0.100000 0.000000 -0.100000
v 0.100000 1.520000 -0.100000
v -0.100000 1.520000 -0.100000
v -0.100000 0.000000 0.100000
v 0.100000 0.000000 0.100000
v 0.118000 1.520000 0.088000
v -0.082000 1.520000 0.088000
v -0.107500 1.520000 -0.107500
v 0.107500 1.520000 -0.107500
v 0.107500 1.520000 0.107500
v -0.107500 1.520000 0.107500
v 0.000000 1.680000 0.000000
v 2.900000 0.000000 -0.100000
v 3.100000 0.000000 -0.100000
v 3.100000 1.480000 -0.100000
v 2.900000 1.480000 -0.100000
v 2.900000 0.000000 0.100000
v 3.100000 0.000000 0.100000
v 3.118000 1.480000 0.088000
v 2.918000 1.480000 0.088000
v 2.892500 1.480000 -0.107500
v 3.107500 1.480000 -0.107500
v 3.107500 1.480000 0.107500
v 2.892500 1.480000 0.107500
v 3.000000 1.640000 0.000000
v 0.089311 0.522231 -0.060000
v 2.909101 0.487779 -0.060000
v 2.910689 0.617769 -0.060000
v 0.090899 0.652221 -0.060000
v 0.089311 0.522231 0.060000
v 2.909101 0.487779 0.060000
v 2.910689 0.617769 0.060000
v 0.090899 0.652221 0.060000
v 0.090758 1.000238 -0.060000
v 2.910603 1.029769 -0.060000
v 2.909242 1.159762 -0.060000
v 0.089397 1.130231 -0.060000
v 0.090758 1.000238 0.060000
v 2.910603 1.029769 0.060000
v 2.909242 1.159762 0.060000
v 0.089397 1.130231 0.060000
v 0.328593 0.122094 -0.142500
v 0.528549 0.117906 -0.142500
v 0.552214 1.247658 -0.142500
v 0.456006 1.429713 -0.142500
v 0.352258 1.251846 -0.142500
v 0.328593 0.122094 -0.057500
v 0.528549 0.117906 -0.057500
v 0.552214 1.247658 -0.057500
v 0.456006 1.429713 -0.057500
v 0.352258 1.251846 -0.057500
v 0.757153 0.118604 -0.142500
v 0.957133 0.121396 -0.142500
v 0.940239 1.331278 -0.142500
v 0.837735 1.509865 -0.142500
v 0.740258 1.328486 -0.142500
v 0.757153 0.118604 -0.057500
v 0.957133 0.121396 -0.057500
v 0.940239 1.331278 -0.057500
v 0.837735 1.509865 -0.057500
v 0.740258 1.328486 -0.057500
v 1.185717 0.120698 -0.142500
v 1.385712 0.119302 -0.142500
v 1.393810 1.279274 -0.142500
v 1.295069 1.459967 -0.142500
v 1.193815 1.280670 -0.142500
v 1.185717 0.120698 -0.057500
v 1.385712 0.119302 -0.057500
v 1.393810 1.279274 -0.057500
v 1.295069 1.459967 -0.057500
v 1.193815 1.280670 -0.057500
v 1.614316 0.117557 -0.142500
v 1.814256 0.122443 -0.142500
v 1.783960 1.362073 -0.142500
v 1.679592 1.539576 -0.142500
v 1.584020 1.357187 -0.142500
v 1.614316 0.117557 -0.057500
v 1.814256 0.122443 -0.057500
v 1.783960 1.362073 -0.057500
v 1.679592 1.539576 -0.057500
v 1.584020 1.357187 -0.057500
v 2.042867 0.121396 -0.142500
v 2.242847 0.118604 -0.142500
v 2.258485 1.238495 -0.142500
v 2.161008 1.419873 -0.142500
v 2.058505 1.241287 -0.142500
v 2.042867 0.121396 -0.057500
v 2.242847 0.118604 -0.057500
v 2.258485 1.238495 -0.057500
v 2.161008 1.419873 -0.057500
v 2.058505 1.241287 -0.057500
v 2.471432 0.119127 -0.142500
v 2.671425 0.120873 -0.142500
v 2.661040 1.310827 -0.142500
v 2.559473 1.489948 -0.142500
v 2.461048 1.309082 -0.142500
v 2.471432 0.119127 -0.057500
v 2.671425 0.120873 -0.057500
v 2.661040 1.310827 -0.057500
v 2.559473 1.489948 -0.057500
v 2.461048 1.309082 -0.057500
v -0.100000 0.000000 2.900000
v 0.100000 0.000000 2.900000
v 0.100000 1.500000 2.900000
v -0.100000 1.500000 2.900000
v -0.100000 0.000000 3.100000
v 0.100000 0.000000 3.100000
v 0.118000 1.500000 3.088000
v -0.082000 1.500000 3.088000
v -0.107500 1.500000 2.892500
v 0.107500 1.500000 2.892500
v 0.107500 1.500000 3.107500
v -0.107500 1.500000 3.107500
v 0.000000 1.660000 3.000000
v -0.060565 0.505526 2.910000
v -0.060565 0.505526 0.090000
v -0.059430 0.635521 0.090000
v -0.059430 0.635521 2.910000
v 0.059430 0.504479 2.910000
v 0.059430 0.504479 0.090000
v 0.060565 0.634474 0.090000
v 0.060565 0.634474 2.910000
v -0.059430 1.014479 2.910000
v -0.059430 1.014479 0.090000
v -0.060565 1.144474 0.090000
v -0.060565 1.144474 2.910000
v 0.060565 1.015526 2.910000
v 0.060565 1.015526 0.090000
v 0.059430 1.145521 0.090000
v 0.059430 1.145521 2.910000
v -0.150734 0.120651 0.328571
v -0.065742 0.119464 0.328571
v -0.049266 1.299349 0.328571
v -0.134258 1.300536 0.328571
v -0.150734 0.120651 0.528571
v -0.065742 0.119464 0.528571
v -0.049266 1.299349 0.528571
v -0.134258 1.300536 0.528571
v -0.142500 1.300000 0.328571
v -0.057500 1.300000 0.328571
v -0.057500 1.300000 0.528571
v -0.142500 1.300000 0.528571
v -0.100000 1.480000 0.428571
v -0.142500 0.120000 0.757143
v -0.057500 0.120000 0.757143
v -0.057500 1.240000 0.757143
v -0.142500 1.240000 0.757143
v -0.142500 0.120000 0.957143
v -0.057500 0.120000 0.957143
v -0.057500 1.240000 0.957143
v -0.142500 1.240000 0.957143
v -0.142500 1.240000 0.757143
v -0.057500 1.240000 0.757143
v -0.057500 1.240000 0.957143
v -0.142500 1.240000 0.957143
v -0.100000 1.420000 0.857143
v -0.133909 0.119467 1.185714
v -0.048917 0.120653 1.185714
v -0.066091 1.350533 1.185714
v -0.151083 1.349347 1.185714
v -0.133909 0.119467 1.385714
v -0.048917 0.120653 1.385714
v -0.066091 1.350533 1.385714
v -0.151083 1.349347 1.385714
v -0.142500 1.350000 1.185714
v -0.057500 1.350000 1.185714
v -0.057500 1.350000 1.385714
v -0.142500 1.350000 1.385714
v -0.100000 1.530000 1.285714
v -0.150524 0.120649 1.614286
v -0.065532 0.119463 1.614286
v -0.049476 1.269351 1.614286
v -0.134468 1.270537 1.614286
v -0.150524 0.120649 1.814286
v -0.065532 0.119463 1.814286
v -0.049476 1.269351 1.814286
v -0.134468 1.270537 1.814286
v -0.142500 1.270000 1.614286
v -0.057500 1.270000 1.614286
v -0.057500 1.270000 1.814286
v -0.142500 1.270000 1.814286
v -0.100000 1.450000 1.714286
v -0.142500 0.120000 2.042857
v -0.057500 0.120000 2.042857
v -0.057500 1.320000 2.042857
v -0.142500 1.320000 2.042857
v -0.142500 0.120000 2.242857
v -0.057500 0.120000 2.242857
v -0.057500 1.320000 2.242857
v -0.142500 1.320000 2.242857
v -0.142500 1.320000 2.042857
v -0.057500 1.320000 2.042857
v -0.057500 1.320000 2.242857
v -0.142500 1.320000 2.242857
v -0.100000 1.500000 2.142857
v -0.134607 0.119462 2.471429
v -0.049616 0.120648 2.471429
v -0.065393 1.250538 2.471429
v -0.150384 1.249352 2.471429
v -0.134607 0.119462 2.671429
v -0.049616 0.120648 2.671429
v -0.065393 1.250538 2.671429
v -0.150384 1.249352 2.671429
v -0.142500 1.250000 2.471429
v -0.057500 1.250000 2.471429
v -0.057500 1.250000 2.671429
v -0.142500 1.250000 2.671429
v -0.100000 1.430000 2.571429
g post_left_shaft
usemtl Wood_Dark
s off
f 1 4 3 2
f 5 6 7 8
f 1 2 6 5
f 4 8 7 3
f 2 3 7 6
f 1 5 8 4
g post_left_cap
usemtl Wood_Cut
s off
f 9 12 11 10
f 9 10 13
f 10 11 13
f 11 12 13
f 12 9 13
g post_right_shaft
usemtl Wood_Dark
s off
f 14 17 16 15
f 18 19 20 21
f 14 15 19 18
f 17 21 20 16
f 15 16 20 19
f 14 18 21 17
g post_right_cap
usemtl Wood_Cut
s off
f 22 25 24 23
f 22 23 26
f 23 24 26
f 24 25 26
f 25 22 26
g rail_low
usemtl Wood_Dark
s off
f 27 30 29 28
f 31 32 33 34
f 27 28 32 31
f 30 34 33 29
f 28 29 33 32
f 27 31 34 30
g rail_high
usemtl Wood_Dark
s off
f 35 38 37 36
f 39 40 41 42
f 35 36 40 39
f 38 42 41 37
f 36 37 41 40
f 35 39 42 38
g picket_1
usemtl Wood_Mid
s off
f 43 47 46 45 44
f 48 49 50 51 52
f 43 44 49 48
f 44 45 50 49
f 45 46 51 50
f 46 47 52 51
f 47 43 48 52
g picket_2
usemtl Wood_Light
s off
f 53 57 56 55 54
f 58 59 60 61 62
f 53 54 59 58
f 54 55 60 59
f 55 56 61 60
f 56 57 62 61
f 57 53 58 62
g picket_3
usemtl Wood_Mid
s off
f 63 67 66 65 64
f 68 69 70 71 72
f 63 64 69 68
f 64 65 70 69
f 65 66 71 70
f 66 67 72 71
f 67 63 68 72
g picket_4
usemtl Wood_Dark
s off
f 73 77 76 75 74
f 78 79 80 81 82
f 73 74 79 78
f 74 75 80 79
f 75 76 81 80
f 76 77 82 81
f 77 73 78 82
g picket_5
usemtl Wood_Light
s off
f 83 87 86 85 84
f 88 89 90 91 92
f 83 84 89 88
f 84 85 90 89
f 85 86 91 90
f 86 87 92 91
f 87 83 88 92
g picket_6
usemtl Wood_Mid
s off
f 93 97 96 95 94
f 98 99 100 101 102
f 93 94 99 98
f 94 95 100 99
f 95 96 101 100
f 96 97 102 101
f 97 93 98 102
g post_z_end_shaft
usemtl Wood_Dark
s off
f 103 106 105 104
f 107 108 109 110
f 103 104 108 107
f 106 110 109 105
f 104 105 109 108
f 103 107 110 106
g post_z_end_cap
usemtl Wood_Cut
s off
f 111 114 113 112
f 111 112 115
f 112 113 115
f 113 114 115
f 114 111 115
g rail_z_low
usemtl Wood_Dark
s off
f 116 119 118 117
f 120 121 122 123
f 116 117 121 120
f 119 123 122 118
f 117 118 122 121
f 116 120 123 119
g rail_z_high
usemtl Wood_Dark
s off
f 124 127 126 125
f 128 129 130 131
f 124 125 129 128
f 127 131 130 126
f 125 126 130 129
f 124 128 131 127
g z_picket_1_body
usemtl Wood_Light
s off
f 132 135 134 133
f 136 137 138 139
f 132 133 137 136
f 135 139 138 134
f 133 134 138 137
f 132 136 139 135
g z_picket_1_tip
usemtl Wood_Cut
s off
f 140 143 142 141
f 140 141 144
f 141 142 144
f 142 143 144
f 143 140 144
g z_picket_2_body
usemtl Wood_Mid
s off
f 145 148 147 146
f 149 150 151 152
f 145 146 150 149
f 148 152 151 147
f 146 147 151 150
f 145 149 152 148
g z_picket_2_tip
usemtl Wood_Cut
s off
f 153 156 155 154
f 153 154 157
f 154 155 157
f 155 156 157
f 156 153 157
g z_picket_3_body
usemtl Wood_Dark
s off
f 158 161 160 159
f 162 163 164 165
f 158 159 163 162
f 161 165 164 160
f 159 160 164 163
f 158 162 165 161
g z_picket_3_tip
usemtl Wood_Cut
s off
f 166 169 168 167
f 166 167 170
f 167 168 170
f 168 169 170
f 169 166 170
g z_picket_4_body
usemtl Wood_Light
s off
f 171 174 173 172
f 175 176 177 178
f 171 172 176 175
f 174 178 177 173
f 172 173 177 176
f 171 175 178 174
g z_picket_4_tip
usemtl Wood_Cut
s off
f 179 182 181 180
f 179 180 183
f 180 181 183
f 181 182 183
f 182 179 183
g z_picket_5_body
usemtl Wood_Mid
s off
f 184 187 186 185
f 188 189 190 191
f 184 185 189 188
f 187 191 190 186
f 185 186 190 189
f 184 188 191 187
g z_picket_5_tip
usemtl Wood_Cut
s off
f 192 195 194 193
f 192 193 196
f 193 194 196
f 194 195 196
f 195 192 196
g z_picket_6_body
usemtl Wood_Dark
s off
f 197 200 199 198
f 201 202 203 204
f 197 198 202 201
f 200 204 203 199
f 198 199 203 202
f 197 201 204 200
g z_picket_6_tip
usemtl Wood_Cut
s off
f 205 208 207 206
f 205 206 209
f 206 207 209
f 207 208 209
f 208 205 209
