# fence_straight_1_5m — procedural low-poly modular fence
mtllib fence_materials.mtl
o fence_straight_1_5m
v -0.100000 0.000000 -0.100000
v 0.100000 0.000000 -0.100000
v 0.100000 1.520000 -0.100000
v -0.100000 1.520000 -0.100000
v -0.100000 0.000000 0.100000
v 0.100000 0.000000 0.100000
v 0.118000 1.520000 0.088000
v -0.082000 1.520000 0.088000
v -0.107500 1.520000 -0.107500
v 0.107500 1.520000 -0.107500
v 0.107500 1.520000 0.107500
v -0.107500 1.520000 0.107500
v 0.000000 1.680000 0.000000
v 1.400000 0.000000 -0.100000
v 1.600000 0.000000 -0.100000
v 1.600000 1.480000 -0.100000
v 1.400000 1.480000 -0.100000
v 1.400000 0.000000 0.100000
v 1.600000 0.000000 0.100000
v 1.618000 1.480000 0.088000
v 1.418000 1.480000 0.088000
v 1.392500 1.480000 -0.107500
v 1.607500 1.480000 -0.107500
v 1.607500 1.480000 0.107500
v 1.392500 1.480000 0.107500
v 1.500000 1.640000 0.000000
v 0.089255 0.513068 -0.060000
v 1.409157 0.496942 -0.060000
v 1.410745 0.626932 -0.060000
v 0.090843 0.643058 -0.060000
v 0.089255 0.513068 0.060000
v 1.409157 0.496942 0.060000
v 1.410745 0.626932 0.060000
v 0.090843 0.643058 0.060000
v 0.090717 1.008092 -0.060000
v 1.410644 1.021915 -0.060000
v 1.409283 1.151908 -0.060000
v 0.089356 1.138085 -0.060000
v 0.090717 1.008092 0.060000
v 1.410644 1.021915 0.060000
v 1.409283 1.151908 0.060000
v 0.089356 1.138085 0.060000
v 0.275022 0.122094 -0.142500
v 0.474978 0.117906 -0.142500
v 0.498643 1.247658 -0.142500
v 0.402435 1.429713 -0.142500
v 0.298687 1.251846 -0.142500
v 0.275022 0.122094 -0.057500
v 0.474978 0.117906 -0.057500
v 0.498643 1.247658 -0.057500
v 0.402435 1.429713 -0.057500
v 0.298687 1.251846 -0.057500
v 0.650010 0.118604 -0.142500
v 0.849990 0.121396 -0.142500
v 0.833096 1.331278 -0.142500
v 0.730593 1.509865 -0.142500
v 0.633116 1.328486 -0.142500
v 0.650010 0.118604 -0.057500
v 0.849990 0.121396 -0.057500
v 0.833096 1.331278 -0.057500
v 0.730593 1.509865 -0.057500
v 0.633116 1.328486 -0.057500
v 1.025002 0.120698 -0.142500
v 1.224998 0.119302 -0.142500
v 1.233096 1.279274 -0.142500
v 1.134355 1.459967 -0.142500
v 1.033101 1.280670 -0.142500
v 1.025002 0.120698 -0.057500
v 1.224998 0.119302 -0.057500
v 1.233096 1.279274 -0.057500
v 1.134355 1.459967 -0.057500
v 1.033101 1.280670 -0.057500
g post_left_shaft
usemtl Wood_Dark
s off
f 1 4 3 2
f 5 6 7 8
f 1 2 6 5
f 4 8 7 3
f 2 3 7 6
f 1 5 8 4
g post_left_cap
usemtl Wood_Cut
s off
f 9 12 11 10
f 9 10 13
f 10 11 13
f 11 12 13
f 12 9 13
g post_right_shaft
usemtl Wood_Dark
s off
f 14 17 16 15
f 18 19 20 21
f 14 15 19 18
f 17 21 20 16
f 15 16 20 19
f 14 18 21 17
g post_right_cap
usemtl Wood_Cut
s off
f 22 25 24 23
f 22 23 26
f 23 24 26
f 24 25 26
f 25 22 26
g rail_low
usemtl Wood_Dark
s off
f 27 30 29 28
f 31 32 33 34
f 27 28 32 31
f 30 34 33 29
f 28 29 33 32
f 27 31 34 30
g rail_high
usemtl Wood_Dark
s off
f 35 38 37 36
f 39 40 41 42
f 35 36 40 39
f 38 42 41 37
f 36 37 41 40
f 35 39 42 38
g picket_1
usemtl Wood_Mid
s off
f 43 47 46 45 44
f 48 49 50 51 52
f 43 44 49 48
f 44 45 50 49
f 45 46 51 50
f 46 47 52 51
f 47 43 48 52
g picket_2
usemtl Wood_Light
s off
f 53 57 56 55 54
f 58 59 60 61 62
f 53 54 59 58
f 54 55 60 59
f 55 56 61 60
f 56 57 62 61
f 57 53 58 62
g picket_3
usemtl Wood_Mid
s off
f 63 67 66 65 64
f 68 69 70 71 72
f 63 64 69 68
f 64 65 70 69
f 65 66 71 70
f 66 67 72 71
f 67 63 68 72
