# fence_straight_3m — procedural low-poly modular fence
mtllib fence_materials.mtl
o fence_straight_3m
v -0.100000 0.000000 -0.100000
v 0.100000 0.000000 -0.100000
v 0.100000 1.520000 -0.100000
v -0.100000 1.520000 -0.100000
v -0.100000 0.000000 0.100000
v 0.100000 0.000000 0.100000
v 0.118000 1.520000 0.088000
v -0.082000 1.520000 0.088000
v -0.107500 1.520000 -0.107500
v 0.107500 1.520000 -0.107500
v 0.107500 1.520000 0.107500
v -0.107500 1.520000 0.107500
v 0.000000 1.680000 0.000000
v 2.900000 0.000000 -0.100000
v 3.100000 0.000000 -0.100000
v 3.100000 1.480000 -0.100000
v 2.900000 1.480000 -0.100000
v 2.900000 0.000000 0.100000
v 3.100000 0.000000 0.100000
v 3.118000 1.480000 0.088000
v 2.918000 1.480000 0.088000
v 2.892500 1.480000 -0.107500
v 3.107500 1.480000 -0.107500
v 3.107500 1.480000 0.107500
v 2.892500 1.480000 0.107500
v 3.000000 1.640000 0.000000
v 0.089311 0.522231 -0.060000
v 2.909101 0.487779 -0.060000
v 2.910689 0.617769 -0.060000
v 0.090899 0.652221 -0.060000
v 0.089311 0.522231 0.060000
v 2.909101 0.487779 0.060000
v 2.910689 0.617769 0.060000
v 0.090899 0.652221 0.060000
v 0.090758 1.000238 -0.060000
v 2.910603 1.029769 -0.060000
v 2.909242 1.159762 -0.060000
v 0.089397 1.130231 -0.060000
v 0.090758 1.000238 0.060000
v 2.910603 1.029769 0.060000
v 2.909242 1.159762 0.060000
v 0.089397 1.130231 0.060000
v 0.328593 0.122094 -0.142500
v 0.528549 0.117906 -0.142500
v 0.552214 1.247658 -0.142500
v 0.456006 1.429713 -0.142500
v 0.352258 1.251846 -0.142500
v 0.328593 0.122094 -0.057500
v 0.528549 0.117906 -0.057500
v 0.552214 1.247658 -0.057500
v 0.456006 1.429713 -0.057500
v 0.352258 1.251846 -0.057500
v 0.757153 0.118604 -0.142500
v 0.957133 0.121396 -0.142500
v 0.940239 1.331278 -0.142500
v 0.837735 1.509865 -0.142500
v 0.740258 1.328486 -0.142500
v 0.757153 0.118604 -0.057500
v 0.957133 0.121396 -0.057500
v 0.940239 1.331278 -0.057500
v 0.837735 1.509865 -0.057500
v 0.740258 1.328486 -0.057500
v 1.185717 0.120698 -0.142500
v 1.385712 0.119302 -0.142500
v 1.393810 1.279274 -0.142500
v 1.295069 1.459967 -0.142500
v 1.193815 1.280670 -0.142500
v 1.185717 0.120698 -0.057500
v 1.385712 0.119302 -0.057500
v 1.393810 1.279274 -0.057500
v 1.295069 1.459967 -0.057500
v 1.193815 1.280670 -0.057500
v 1.614316 0.117557 -0.142500
v 1.814256 0.122443 -0.142500
v 1.783960 1.362073 -0.142500
v 1.679592 1.539576 -0.142500
v 1.584020 1.357187 -0.142500
v 1.614316 0.117557 -0.057500
v 1.814256 0.122443 -0.057500
v 1.783960 1.362073 -0.057500
v 1.679592 1.539576 -0.057500
v 1.584020 1.357187 -0.057500
v 2.042867 0.121396 -0.142500
v 2.242847 0.118604 -0.142500
v 2.258485 1.238495 -0.142500
v 2.161008 1.419873 -0.142500
v 2.058505 1.241287 -0.142500
v 2.042867 0.121396 -0.057500
v 2.242847 0.118604 -0.057500
v 2.258485 1.238495 -0.057500
v 2.161008 1.419873 -0.057500
v 2.058505 1.241287 -0.057500
v 2.471432 0.119127 -0.142500
v 2.671425 0.120873 -0.142500
v 2.661040 1.310827 -0.142500
v 2.559473 1.489948 -0.142500
v 2.461048 1.309082 -0.142500
v 2.471432 0.119127 -0.057500
v 2.671425 0.120873 -0.057500
v 2.661040 1.310827 -0.057500
v 2.559473 1.489948 -0.057500
v 2.461048 1.309082 -0.057500
g post_left_shaft
usemtl Wood_Dark
s off
f 1 4 3 2
f 5 6 7 8
f 1 2 6 5
f 4 8 7 3
f 2 3 7 6
f 1 5 8 4
g post_left_cap
usemtl Wood_Cut
s off
f 9 12 11 10
f 9 10 13
f 10 11 13
f 11 12 13
f 12 9 13
g post_right_shaft
usemtl Wood_Dark
s off
f 14 17 16 15
f 18 19 20 21
f 14 15 19 18
f 17 21 20 16
f 15 16 20 19
f 14 18 21 17
g post_right_cap
usemtl Wood_Cut
s off
f 22 25 24 23
f 22 23 26
f 23 24 26
f 24 25 26
f 25 22 26
g rail_low
usemtl Wood_Dark
s off
f 27 30 29 28
f 31 32 33 34
f 27 28 32 31
f 30 34 33 29
f 28 29 33 32
f 27 31 34 30
g rail_high
usemtl Wood_Dark
s off
f 35 38 37 36
f 39 40 41 42
f 35 36 40 39
f 38 42 41 37
f 36 37 41 40
f 35 39 42 38
g picket_1
usemtl Wood_Mid
s off
f 43 47 46 45 44
f 48 49 50 51 52
f 43 44 49 48
f 44 45 50 49
f 45 46 51 50
f 46 47 52 51
f 47 43 48 52
g picket_2
usemtl Wood_Light
s off
f 53 57 56 55 54
f 58 59 60 61 62
f 53 54 59 58
f 54 55 60 59
f 55 56 61 60
f 56 57 62 61
f 57 53 58 62
g picket_3
usemtl Wood_Mid
s off
f 63 67 66 65 64
f 68 69 70 71 72
f 63 64 69 68
f 64 65 70 69
f 65 66 71 70
f 66 67 72 71
f 67 63 68 72
g picket_4
usemtl Wood_Dark
s off
f 73 77 76 75 74
f 78 79 80 81 82
f 73 74 79 78
f 74 75 80 79
f 75 76 81 80
f 76 77 82 81
f 77 73 78 82
g picket_5
usemtl Wood_Light
s off
f 83 87 86 85 84
f 88 89 90 91 92
f 83 84 89 88
f 84 85 90 89
f 85 86 91 90
f 86 87 92 91
f 87 83 88 92
g picket_6
usemtl Wood_Mid
s off
f 93 97 96 95 94
f 98 99 100 101 102
f 93 94 99 98
f 94 95 100 99
f 95 96 101 100
f 96 97 102 101
f 97 93 98 102
