# farm_bed_2x2_bare modular low-poly farm bed
mtllib farm_beds_materials.mtl
o farm_bed_2x2_bare
v 0.040000 0.000000 0.040000
v 1.960000 0.000000 0.040000
v 1.960000 0.000000 1.960000
v 0.040000 0.000000 1.960000
v 0.140000 0.110000 0.140000
v 1.860000 0.140000 0.125000
v 1.880000 0.120000 1.860000
v 0.130000 0.150000 1.875000
v 0.520000 0.160000 1.000000
v 1.000000 0.185000 0.961600
v 1.480000 0.152000 1.019200
v 1.000000 0.170000 1.422400
v 1.650000 0.020000 0.240000
v 1.776000 0.015000 0.208500
v 1.790000 0.020000 0.275000
v 1.681500 0.010000 0.289000
v 1.702500 0.038500 0.229500
v 1.744500 0.033600 0.248400
g soil
usemtl Soil_Mid
s off
f 1 2 6 5
f 2 3 7 6
f 3 4 8 7
f 4 1 5 8
f 5 6 10 9
f 6 7 11 10
f 7 8 12 11
f 8 5 9 12
f 9 10 11 12
f 1 4 3 2
g small_stone
usemtl Stone
s off
f 13 14 17
f 14 18 17
f 14 15 18
f 15 16 18
f 16 17 18
f 16 13 17
f 13 16 15 14
