# farm_bed_2x1_seedlings modular low-poly farm bed
mtllib farm_beds_materials.mtl
o farm_bed_2x1_seedlings
v 0.040000 0.000000 0.040000
v 1.960000 0.000000 0.040000
v 1.960000 0.000000 0.960000
v 0.040000 0.000000 0.960000
v 0.140000 0.110000 0.140000
v 1.860000 0.140000 0.125000
v 1.880000 0.120000 0.860000
v 0.130000 0.150000 0.875000
v 0.520000 0.160000 0.500000
v 1.000000 0.185000 0.481600
v 1.480000 0.152000 0.509200
v 1.000000 0.170000 0.702400
v 0.280000 0.170000 0.280000
v 0.320123 0.182600 0.310501
v 0.225827 0.232232 0.351262
v 0.239877 0.182600 0.249499
v 0.257247 0.214051 0.309930
v 0.280000 0.170000 0.280000
v 0.244286 0.181592 0.250428
v 0.332522 0.227254 0.216568
v 0.315714 0.181592 0.309572
v 0.302059 0.210526 0.253359
v 0.640000 0.170000 0.280000
v 0.684708 0.184040 0.313987
v 0.579635 0.239344 0.359406
v 0.595292 0.184040 0.246013
v 0.614647 0.219085 0.313350
v 0.640000 0.170000 0.280000
v 0.600204 0.182917 0.247048
v 0.698525 0.233797 0.209319
v 0.679796 0.182917 0.312952
v 0.664580 0.215158 0.250314
v 1.000000 0.170000 0.280000
v 1.040123 0.182600 0.310501
v 0.945827 0.232232 0.351262
v 0.959877 0.182600 0.249499
v 0.977247 0.214051 0.309930
v 1.000000 0.170000 0.280000
v 0.964286 0.181592 0.250428
v 1.052522 0.227254 0.216568
v 1.035714 0.181592 0.309572
v 1.022059 0.210526 0.253359
v 1.360000 0.170000 0.280000
v 1.404708 0.184040 0.313987
v 1.299635 0.239344 0.359406
v 1.315292 0.184040 0.246013
v 1.334647 0.219085 0.313350
v 1.360000 0.170000 0.280000
v 1.320204 0.182917 0.247048
v 1.418525 0.233797 0.209319
v 1.399796 0.182917 0.312952
v 1.384580 0.215158 0.250314
v 1.720000 0.170000 0.280000
v 1.760123 0.182600 0.310501
v 1.665827 0.232232 0.351262
v 1.679877 0.182600 0.249499
v 1.697247 0.214051 0.309930
v 1.720000 0.170000 0.280000
v 1.684286 0.181592 0.250428
v 1.772522 0.227254 0.216568
v 1.755714 0.181592 0.309572
v 1.742059 0.210526 0.253359
v 0.280000 0.170000 0.520000
v 0.320123 0.182600 0.550501
v 0.225827 0.232232 0.591262
v 0.239877 0.182600 0.489499
v 0.257247 0.214051 0.549930
v 0.280000 0.170000 0.520000
v 0.244286 0.181592 0.490428
v 0.332522 0.227254 0.456568
v 0.315714 0.181592 0.549572
v 0.302059 0.210526 0.493359
v 0.640000 0.170000 0.520000
v 0.684708 0.184040 0.553987
v 0.579635 0.239344 0.599406
v 0.595292 0.184040 0.486013
v 0.614647 0.219085 0.553350
v 0.640000 0.170000 0.520000
v 0.600204 0.182917 0.487048
v 0.698525 0.233797 0.449319
v 0.679796 0.182917 0.552952
v 0.664580 0.215158 0.490314
v 1.000000 0.170000 0.520000
v 1.040123 0.182600 0.550501
v 0.945827 0.232232 0.591262
v 0.959877 0.182600 0.489499
v 0.977247 0.214051 0.549930
v 1.000000 0.170000 0.520000
v 0.964286 0.181592 0.490428
v 1.052522 0.227254 0.456568
v 1.035714 0.181592 0.549572
v 1.022059 0.210526 0.493359
v 1.360000 0.170000 0.520000
v 1.404708 0.184040 0.553987
v 1.299635 0.239344 0.599406
v 1.315292 0.184040 0.486013
v 1.334647 0.219085 0.553350
v 1.360000 0.170000 0.520000
v 1.320204 0.182917 0.487048
v 1.418525 0.233797 0.449319
v 1.399796 0.182917 0.552952
v 1.384580 0.215158 0.490314
v 1.720000 0.170000 0.520000
v 1.760123 0.182600 0.550501
v 1.665827 0.232232 0.591262
v 1.679877 0.182600 0.489499
v 1.697247 0.214051 0.549930
v 1.720000 0.170000 0.520000
v 1.684286 0.181592 0.490428
v 1.772522 0.227254 0.456568
v 1.755714 0.181592 0.549572
v 1.742059 0.210526 0.493359
v 0.280000 0.170000 0.760000
v 0.320123 0.182600 0.790501
v 0.225827 0.232232 0.831262
v 0.239877 0.182600 0.729499
v 0.257247 0.214051 0.789930
v 0.280000 0.170000 0.760000
v 0.244286 0.181592 0.730428
v 0.332522 0.227254 0.696568
v 0.315714 0.181592 0.789572
v 0.302059 0.210526 0.733359
v 0.640000 0.170000 0.760000
v 0.684708 0.184040 0.793987
v 0.579635 0.239344 0.839406
v 0.595292 0.184040 0.726013
v 0.614647 0.219085 0.793350
v 0.640000 0.170000 0.760000
v 0.600204 0.182917 0.727048
v 0.698525 0.233797 0.689319
v 0.679796 0.182917 0.792952
v 0.664580 0.215158 0.730314
v 1.000000 0.170000 0.760000
v 1.040123 0.182600 0.790501
v 0.945827 0.232232 0.831262
v 0.959877 0.182600 0.729499
v 0.977247 0.214051 0.789930
v 1.000000 0.170000 0.760000
v 0.964286 0.181592 0.730428
v 1.052522 0.227254 0.696568
v 1.035714 0.181592 0.789572
v 1.022059 0.210526 0.733359
v 1.360000 0.170000 0.760000
v 1.404708 0.184040 0.793987
v 1.299635 0.239344 0.839406
v 1.315292 0.184040 0.726013
v 1.334647 0.219085 0.793350
v 1.360000 0.170000 0.760000
v 1.320204 0.182917 0.727048
v 1.418525 0.233797 0.689319
v 1.399796 0.182917 0.792952
v 1.384580 0.215158 0.730314
v 1.720000 0.170000 0.760000
v 1.760123 0.182600 0.790501
v 1.665827 0.232232 0.831262
v 1.679877 0.182600 0.729499
v 1.697247 0.214051 0.789930
v 1.720000 0.170000 0.760000
v 1.684286 0.181592 0.730428
v 1.772522 0.227254 0.696568
v 1.755714 0.181592 0.789572
v 1.742059 0.210526 0.733359
g soil
usemtl Soil_Mid
s off
f 1 2 6 5
f 2 3 7 6
f 3 4 8 7
f 4 1 5 8
f 5 6 10 9
f 6 7 11 10
f 7 8 12 11
f 8 5 9 12
f 9 10 11 12
f 1 4 3 2
g seedling_0_0_a
usemtl Leaf_Mid
s off
f 13 14 17
f 14 15 17
f 15 16 17
f 16 13 17
g seedling_0_0_b
usemtl Leaf_Light
s off
f 18 19 22
f 19 20 22
f 20 21 22
f 21 18 22
g seedling_0_1_a
usemtl Leaf_Mid
s off
f 23 24 27
f 24 25 27
f 25 26 27
f 26 23 27
g seedling_0_1_b
usemtl Leaf_Light
s off
f 28 29 32
f 29 30 32
f 30 31 32
f 31 28 32
g seedling_0_2_a
usemtl Leaf_Mid
s off
f 33 34 37
f 34 35 37
f 35 36 37
f 36 33 37
g seedling_0_2_b
usemtl Leaf_Light
s off
f 38 39 42
f 39 40 42
f 40 41 42
f 41 38 42
g seedling_0_3_a
usemtl Leaf_Mid
s off
f 43 44 47
f 44 45 47
f 45 46 47
f 46 43 47
g seedling_0_3_b
usemtl Leaf_Light
s off
f 48 49 52
f 49 50 52
f 50 51 52
f 51 48 52
g seedling_0_4_a
usemtl Leaf_Mid
s off
f 53 54 57
f 54 55 57
f 55 56 57
f 56 53 57
g seedling_0_4_b
usemtl Leaf_Light
s off
f 58 59 62
f 59 60 62
f 60 61 62
f 61 58 62
g seedling_1_0_a
usemtl Leaf_Mid
s off
f 63 64 67
f 64 65 67
f 65 66 67
f 66 63 67
g seedling_1_0_b
usemtl Leaf_Light
s off
f 68 69 72
f 69 70 72
f 70 71 72
f 71 68 72
g seedling_1_1_a
usemtl Leaf_Mid
s off
f 73 74 77
f 74 75 77
f 75 76 77
f 76 73 77
g seedling_1_1_b
usemtl Leaf_Light
s off
f 78 79 82
f 79 80 82
f 80 81 82
f 81 78 82
g seedling_1_2_a
usemtl Leaf_Mid
s off
f 83 84 87
f 84 85 87
f 85 86 87
f 86 83 87
g seedling_1_2_b
usemtl Leaf_Light
s off
f 88 89 92
f 89 90 92
f 90 91 92
f 91 88 92
g seedling_1_3_a
usemtl Leaf_Mid
s off
f 93 94 97
f 94 95 97
f 95 96 97
f 96 93 97
g seedling_1_3_b
usemtl Leaf_Light
s off
f 98 99 102
f 99 100 102
f 100 101 102
f 101 98 102
g seedling_1_4_a
usemtl Leaf_Mid
s off
f 103 104 107
f 104 105 107
f 105 106 107
f 106 103 107
g seedling_1_4_b
usemtl Leaf_Light
s off
f 108 109 112
f 109 110 112
f 110 111 112
f 111 108 112
g seedling_2_0_a
usemtl Leaf_Mid
s off
f 113 114 117
f 114 115 117
f 115 116 117
f 116 113 117
g seedling_2_0_b
usemtl Leaf_Light
s off
f 118 119 122
f 119 120 122
f 120 121 122
f 121 118 122
g seedling_2_1_a
usemtl Leaf_Mid
s off
f 123 124 127
f 124 125 127
f 125 126 127
f 126 123 127
g seedling_2_1_b
usemtl Leaf_Light
s off
f 128 129 132
f 129 130 132
f 130 131 132
f 131 128 132
g seedling_2_2_a
usemtl Leaf_Mid
s off
f 133 134 137
f 134 135 137
f 135 136 137
f 136 133 137
g seedling_2_2_b
usemtl Leaf_Light
s off
f 138 139 142
f 139 140 142
f 140 141 142
f 141 138 142
g seedling_2_3_a
usemtl Leaf_Mid
s off
f 143 144 147
f 144 145 147
f 145 146 147
f 146 143 147
g seedling_2_3_b
usemtl Leaf_Light
s off
f 148 149 152
f 149 150 152
f 150 151 152
f 151 148 152
g seedling_2_4_a
usemtl Leaf_Mid
s off
f 153 154 157
f 154 155 157
f 155 156 157
f 156 153 157
g seedling_2_4_b
usemtl Leaf_Light
s off
f 158 159 162
f 159 160 162
f 160 161 162
f 161 158 162
