# farm_path_1x1 modular low-poly farm bed
mtllib farm_beds_materials.mtl
o farm_path_1x1
v 0.078630 0.000000 0.165183
v 0.416931 0.000000 0.131240
v 0.416931 0.070000 0.131240
v 0.078630 0.070000 0.165183
v 0.103069 0.000000 0.408760
v 0.441370 0.000000 0.374817
v 0.441370 0.070000 0.374817
v 0.103069 0.070000 0.408760
v 0.547824 0.000000 0.090797
v 0.844455 0.000000 0.135628
v 0.844455 0.070000 0.135628
v 0.547824 0.070000 0.090797
v 0.515545 0.000000 0.304372
v 0.812176 0.000000 0.349203
v 0.812176 0.070000 0.349203
v 0.515545 0.070000 0.304372
v 0.263748 0.000000 0.459558
v 0.623298 0.000000 0.441566
v 0.623298 0.070000 0.441566
v 0.263748 0.070000 0.459558
v 0.276702 0.000000 0.718434
v 0.636252 0.000000 0.700442
v 0.636252 0.070000 0.700442
v 0.276702 0.070000 0.718434
v 0.638380 0.000000 0.651558
v 0.902998 0.000000 0.597917
v 0.902998 0.070000 0.597917
v 0.638380 0.070000 0.651558
v 0.677002 0.000000 0.842083
v 0.941620 0.000000 0.788442
v 0.941620 0.070000 0.788442
v 0.677002 0.070000 0.842083
v 0.054609 0.000000 0.687970
v 0.303361 0.000000 0.712929
v 0.303361 0.070000 0.712929
v 0.054609 0.070000 0.687970
v 0.036639 0.000000 0.867071
v 0.285391 0.000000 0.892030
v 0.285391 0.070000 0.892030
v 0.036639 0.070000 0.867071
g stone_0
usemtl Stone
s off
f 1 4 3 2
f 5 6 7 8
f 1 2 6 5
f 4 8 7 3
f 2 3 7 6
f 1 5 8 4
g stone_1
usemtl Stone
s off
f 9 12 11 10
f 13 14 15 16
f 9 10 14 13
f 12 16 15 11
f 10 11 15 14
f 9 13 16 12
g stone_2
usemtl Stone
s off
f 17 20 19 18
f 21 22 23 24
f 17 18 22 21
f 20 24 23 19
f 18 19 23 22
f 17 21 24 20
g stone_3
usemtl Stone
s off
f 25 28 27 26
f 29 30 31 32
f 25 26 30 29
f 28 32 31 27
f 26 27 31 30
f 25 29 32 28
g stone_4
usemtl Stone
s off
f 33 36 35 34
f 37 38 39 40
f 33 34 38 37
f 36 40 39 35
f 34 35 39 38
f 33 37 40 36
