# farm_bed_1x1_bare modular low-poly farm bed
mtllib farm_beds_materials.mtl
o farm_bed_1x1_bare
v 0.040000 0.000000 0.040000
v 0.960000 0.000000 0.040000
v 0.960000 0.000000 0.960000
v 0.040000 0.000000 0.960000
v 0.140000 0.110000 0.140000
v 0.860000 0.140000 0.125000
v 0.880000 0.120000 0.860000
v 0.130000 0.150000 0.875000
v 0.270000 0.160000 0.500000
v 0.500000 0.185000 0.481600
v 0.730000 0.152000 0.509200
v 0.500000 0.170000 0.702400
g soil
usemtl Soil_Mid
s off
f 1 2 6 5
f 2 3 7 6
f 3 4 8 7
f 4 1 5 8
f 5 6 10 9
f 6 7 11 10
f 7 8 12 11
f 8 5 9 12
f 9 10 11 12
f 1 4 3 2
