# farm_bed_2x1_furrows modular low-poly farm bed
mtllib farm_beds_materials.mtl
o farm_bed_2x1_furrows
v 0.040000 0.000000 0.040000
v 1.960000 0.000000 0.040000
v 1.960000 0.000000 0.960000
v 0.040000 0.000000 0.960000
v 0.140000 0.110000 0.140000
v 1.860000 0.140000 0.125000
v 1.880000 0.120000 0.860000
v 0.130000 0.150000 0.875000
v 0.520000 0.160000 0.500000
v 1.000000 0.185000 0.481600
v 1.480000 0.152000 0.509200
v 1.000000 0.170000 0.702400
v 0.140000 0.130000 0.335000
v 0.140000 0.130000 0.165000
v 0.140000 0.230000 0.250000
v 1.860000 0.130000 0.335000
v 1.860000 0.130000 0.165000
v 1.860000 0.230000 0.250000
v 0.140000 0.130000 0.585000
v 0.140000 0.130000 0.415000
v 0.140000 0.230000 0.500000
v 1.860000 0.130000 0.585000
v 1.860000 0.130000 0.415000
v 1.860000 0.230000 0.500000
v 0.140000 0.130000 0.835000
v 0.140000 0.130000 0.665000
v 0.140000 0.230000 0.750000
v 1.860000 0.130000 0.835000
v 1.860000 0.130000 0.665000
v 1.860000 0.230000 0.750000
g soil
usemtl Soil_Mid
s off
f 1 2 6 5
f 2 3 7 6
f 3 4 8 7
f 4 1 5 8
f 5 6 10 9
f 6 7 11 10
f 7 8 12 11
f 8 5 9 12
f 9 10 11 12
f 1 4 3 2
g ridge_1
usemtl Soil_Dark
s off
f 13 14 15
f 16 18 17
f 13 16 17 14
f 14 17 18 15
f 15 18 16 13
g ridge_2
usemtl Soil_Light
s off
f 19 20 21
f 22 24 23
f 19 22 23 20
f 20 23 24 21
f 21 24 22 19
g ridge_3
usemtl Soil_Dark
s off
f 25 26 27
f 28 30 29
f 25 28 29 26
f 26 29 30 27
f 27 30 28 25
