# farm_bed_2x1_carrots modular low-poly farm bed
mtllib farm_beds_materials.mtl
o farm_bed_2x1_carrots
v 0.040000 0.000000 0.040000
v 1.960000 0.000000 0.040000
v 1.960000 0.000000 0.960000
v 0.040000 0.000000 0.960000
v 0.140000 0.110000 0.140000
v 1.860000 0.140000 0.125000
v 1.880000 0.120000 0.860000
v 0.130000 0.150000 0.875000
v 0.520000 0.160000 0.500000
v 1.000000 0.185000 0.481600
v 1.480000 0.152000 0.509200
v 1.000000 0.170000 0.702400
v 0.288250 0.145000 0.270000
v 0.269125 0.145000 0.303125
v 0.230875 0.145000 0.303125
v 0.211750 0.145000 0.270000
v 0.230875 0.145000 0.236875
v 0.269125 0.145000 0.236875
v 0.250000 0.009000 0.270000
v 0.250000 0.170000 0.270000
v 0.303040 0.183260 0.270000
v 0.250000 0.253056 0.350852
v 0.196960 0.183260 0.270000
v 0.250000 0.223735 0.303958
v 0.250000 0.170000 0.270000
v 0.266372 0.183260 0.219550
v 0.326904 0.253056 0.294957
v 0.233628 0.183260 0.320450
v 0.282299 0.223735 0.280482
v 0.250000 0.170000 0.270000
v 0.207067 0.183260 0.238855
v 0.297476 0.253056 0.204555
v 0.292933 0.183260 0.301145
v 0.269940 0.223735 0.242513
v 0.250000 0.170000 0.270000
v 0.207124 0.183260 0.301223
v 0.202405 0.253056 0.204641
v 0.292876 0.183260 0.238777
v 0.230010 0.223735 0.242549
v 0.250000 0.170000 0.270000
v 0.266463 0.183260 0.320420
v 0.173142 0.253056 0.295096
v 0.233537 0.183260 0.219580
v 0.217720 0.223735 0.280540
v 0.661850 0.145000 0.270000
v 0.640925 0.145000 0.306243
v 0.599075 0.145000 0.306243
v 0.578150 0.145000 0.270000
v 0.599075 0.145000 0.233757
v 0.640925 0.145000 0.233757
v 0.620000 -0.003800 0.270000
v 0.620000 0.170000 0.270000
v 0.678032 0.184508 0.270000
v 0.620000 0.260873 0.358461
v 0.561968 0.184508 0.270000
v 0.620000 0.228792 0.307154
v 0.620000 0.170000 0.270000
v 0.637913 0.184508 0.214802
v 0.704142 0.260873 0.297305
v 0.602087 0.184508 0.325198
v 0.655339 0.228792 0.281468
v 0.620000 0.170000 0.270000
v 0.573026 0.184508 0.235924
v 0.671944 0.260873 0.198396
v 0.666974 0.184508 0.304076
v 0.641817 0.228792 0.239926
v 0.620000 0.170000 0.270000
v 0.573088 0.184508 0.304161
v 0.567926 0.260873 0.198490
v 0.666912 0.184508 0.235839
v 0.598129 0.228792 0.239966
v 0.620000 0.170000 0.270000
v 0.638013 0.184508 0.325166
v 0.535908 0.260873 0.297458
v 0.601987 0.184508 0.214834
v 0.584681 0.228792 0.281532
v 1.035450 0.145000 0.270000
v 1.012725 0.145000 0.309361
v 0.967275 0.145000 0.309361
v 0.944550 0.145000 0.270000
v 0.967275 0.145000 0.230639
v 1.012725 0.145000 0.230639
v 0.990000 -0.016600 0.270000
v 0.990000 0.170000 0.270000
v 1.053024 0.185756 0.270000
v 0.990000 0.268690 0.366071
v 0.926976 0.185756 0.270000
v 0.990000 0.233850 0.310350
v 0.990000 0.170000 0.270000
v 1.009454 0.185756 0.210054
v 1.081379 0.268690 0.299654
v 0.970546 0.185756 0.329946
v 1.028379 0.233850 0.282455
v 0.990000 0.170000 0.270000
v 0.938986 0.185756 0.232992
v 1.046413 0.268690 0.192236
v 1.041014 0.185756 0.307008
v 1.013693 0.233850 0.237339
v 0.990000 0.170000 0.270000
v 0.939053 0.185756 0.307100
v 0.933446 0.268690 0.192339
v 1.040947 0.185756 0.232900
v 0.966248 0.233850 0.237382
v 0.990000 0.170000 0.270000
v 1.009562 0.185756 0.329911
v 0.898674 0.268690 0.299820
v 0.970438 0.185756 0.210089
v 0.951643 0.233850 0.282524
v 1.398250 0.145000 0.270000
v 1.379125 0.145000 0.303125
v 1.340875 0.145000 0.303125
v 1.321750 0.145000 0.270000
v 1.340875 0.145000 0.236875
v 1.379125 0.145000 0.236875
v 1.360000 0.009000 0.270000
v 1.360000 0.170000 0.270000
v 1.413040 0.183260 0.270000
v 1.360000 0.253056 0.350852
v 1.306960 0.183260 0.270000
v 1.360000 0.223735 0.303958
v 1.360000 0.170000 0.270000
v 1.376372 0.183260 0.219550
v 1.436904 0.253056 0.294957
v 1.343628 0.183260 0.320450
v 1.392299 0.223735 0.280482
v 1.360000 0.170000 0.270000
v 1.317067 0.183260 0.238855
v 1.407476 0.253056 0.204555
v 1.402933 0.183260 0.301145
v 1.379940 0.223735 0.242513
v 1.360000 0.170000 0.270000
v 1.317124 0.183260 0.301223
v 1.312405 0.253056 0.204641
v 1.402876 0.183260 0.238777
v 1.340010 0.223735 0.242549
v 1.360000 0.170000 0.270000
v 1.376463 0.183260 0.320420
v 1.283142 0.253056 0.295096
v 1.343537 0.183260 0.219580
v 1.327720 0.223735 0.280540
v 1.771850 0.145000 0.270000
v 1.750925 0.145000 0.306243
v 1.709075 0.145000 0.306243
v 1.688150 0.145000 0.270000
v 1.709075 0.145000 0.233757
v 1.750925 0.145000 0.233757
v 1.730000 -0.003800 0.270000
v 1.730000 0.170000 0.270000
v 1.788032 0.184508 0.270000
v 1.730000 0.260873 0.358461
v 1.671968 0.184508 0.270000
v 1.730000 0.228792 0.307154
v 1.730000 0.170000 0.270000
v 1.747913 0.184508 0.214802
v 1.814142 0.260873 0.297305
v 1.712087 0.184508 0.325198
v 1.765339 0.228792 0.281468
v 1.730000 0.170000 0.270000
v 1.683026 0.184508 0.235924
v 1.781944 0.260873 0.198396
v 1.776974 0.184508 0.304076
v 1.751817 0.228792 0.239926
v 1.730000 0.170000 0.270000
v 1.683088 0.184508 0.304161
v 1.677926 0.260873 0.198490
v 1.776912 0.184508 0.235839
v 1.708129 0.228792 0.239966
v 1.730000 0.170000 0.270000
v 1.748013 0.184508 0.325166
v 1.645908 0.260873 0.297458
v 1.711987 0.184508 0.214834
v 1.694681 0.228792 0.281532
v 0.291850 0.145000 0.510000
v 0.270925 0.145000 0.546243
v 0.229075 0.145000 0.546243
v 0.208150 0.145000 0.510000
v 0.229075 0.145000 0.473757
v 0.270925 0.145000 0.473757
v 0.250000 -0.003800 0.510000
v 0.250000 0.170000 0.510000
v 0.308032 0.184508 0.510000
v 0.250000 0.260873 0.598461
v 0.191968 0.184508 0.510000
v 0.250000 0.228792 0.547154
v 0.250000 0.170000 0.510000
v 0.267913 0.184508 0.454802
v 0.334142 0.260873 0.537305
v 0.232087 0.184508 0.565198
v 0.285339 0.228792 0.521468
v 0.250000 0.170000 0.510000
v 0.203026 0.184508 0.475924
v 0.301944 0.260873 0.438396
v 0.296974 0.184508 0.544076
v 0.271817 0.228792 0.479926
v 0.250000 0.170000 0.510000
v 0.203088 0.184508 0.544161
v 0.197926 0.260873 0.438490
v 0.296912 0.184508 0.475839
v 0.228129 0.228792 0.479966
v 0.250000 0.170000 0.510000
v 0.268013 0.184508 0.565166
v 0.165908 0.260873 0.537458
v 0.231987 0.184508 0.454834
v 0.214681 0.228792 0.521532
v 0.665450 0.145000 0.510000
v 0.642725 0.145000 0.549361
v 0.597275 0.145000 0.549361
v 0.574550 0.145000 0.510000
v 0.597275 0.145000 0.470639
v 0.642725 0.145000 0.470639
v 0.620000 -0.016600 0.510000
v 0.620000 0.170000 0.510000
v 0.683024 0.185756 0.510000
v 0.620000 0.268690 0.606071
v 0.556976 0.185756 0.510000
v 0.620000 0.233850 0.550350
v 0.620000 0.170000 0.510000
v 0.639454 0.185756 0.450054
v 0.711379 0.268690 0.539654
v 0.600546 0.185756 0.569946
v 0.658379 0.233850 0.522455
v 0.620000 0.170000 0.510000
v 0.568986 0.185756 0.472992
v 0.676413 0.268690 0.432236
v 0.671014 0.185756 0.547008
v 0.643693 0.233850 0.477339
v 0.620000 0.170000 0.510000
v 0.569053 0.185756 0.547100
v 0.563446 0.268690 0.432339
v 0.670947 0.185756 0.472900
v 0.596248 0.233850 0.477382
v 0.620000 0.170000 0.510000
v 0.639562 0.185756 0.569911
v 0.528674 0.268690 0.539820
v 0.600438 0.185756 0.450089
v 0.581643 0.233850 0.522524
v 1.028250 0.145000 0.510000
v 1.009125 0.145000 0.543125
v 0.970875 0.145000 0.543125
v 0.951750 0.145000 0.510000
v 0.970875 0.145000 0.476875
v 1.009125 0.145000 0.476875
v 0.990000 0.009000 0.510000
v 0.990000 0.170000 0.510000
v 1.043040 0.183260 0.510000
v 0.990000 0.253056 0.590852
v 0.936960 0.183260 0.510000
v 0.990000 0.223735 0.543958
v 0.990000 0.170000 0.510000
v 1.006372 0.183260 0.459550
v 1.066904 0.253056 0.534957
v 0.973628 0.183260 0.560450
v 1.022299 0.223735 0.520482
v 0.990000 0.170000 0.510000
v 0.947067 0.183260 0.478855
v 1.037476 0.253056 0.444555
v 1.032933 0.183260 0.541145
v 1.009940 0.223735 0.482513
v 0.990000 0.170000 0.510000
v 0.947124 0.183260 0.541223
v 0.942405 0.253056 0.444641
v 1.032876 0.183260 0.478777
v 0.970010 0.223735 0.482549
v 0.990000 0.170000 0.510000
v 1.006463 0.183260 0.560420
v 0.913142 0.253056 0.535096
v 0.973537 0.183260 0.459580
v 0.957720 0.223735 0.520540
v 1.401850 0.145000 0.510000
v 1.380925 0.145000 0.546243
v 1.339075 0.145000 0.546243
v 1.318150 0.145000 0.510000
v 1.339075 0.145000 0.473757
v 1.380925 0.145000 0.473757
v 1.360000 -0.003800 0.510000
v 1.360000 0.170000 0.510000
v 1.418032 0.184508 0.510000
v 1.360000 0.260873 0.598461
v 1.301968 0.184508 0.510000
v 1.360000 0.228792 0.547154
v 1.360000 0.170000 0.510000
v 1.377913 0.184508 0.454802
v 1.444142 0.260873 0.537305
v 1.342087 0.184508 0.565198
v 1.395339 0.228792 0.521468
v 1.360000 0.170000 0.510000
v 1.313026 0.184508 0.475924
v 1.411944 0.260873 0.438396
v 1.406974 0.184508 0.544076
v 1.381817 0.228792 0.479926
v 1.360000 0.170000 0.510000
v 1.313088 0.184508 0.544161
v 1.307926 0.260873 0.438490
v 1.406912 0.184508 0.475839
v 1.338129 0.228792 0.479966
v 1.360000 0.170000 0.510000
v 1.378013 0.184508 0.565166
v 1.275908 0.260873 0.537458
v 1.341987 0.184508 0.454834
v 1.324681 0.228792 0.521532
v 1.775450 0.145000 0.510000
v 1.752725 0.145000 0.549361
v 1.707275 0.145000 0.549361
v 1.684550 0.145000 0.510000
v 1.707275 0.145000 0.470639
v 1.752725 0.145000 0.470639
v 1.730000 -0.016600 0.510000
v 1.730000 0.170000 0.510000
v 1.793024 0.185756 0.510000
v 1.730000 0.268690 0.606071
v 1.666976 0.185756 0.510000
v 1.730000 0.233850 0.550350
v 1.730000 0.170000 0.510000
v 1.749454 0.185756 0.450054
v 1.821379 0.268690 0.539654
v 1.710546 0.185756 0.569946
v 1.768379 0.233850 0.522455
v 1.730000 0.170000 0.510000
v 1.678986 0.185756 0.472992
v 1.786413 0.268690 0.432236
v 1.781014 0.185756 0.547008
v 1.753693 0.233850 0.477339
v 1.730000 0.170000 0.510000
v 1.679053 0.185756 0.547100
v 1.673446 0.268690 0.432339
v 1.780947 0.185756 0.472900
v 1.706248 0.233850 0.477382
v 1.730000 0.170000 0.510000
v 1.749562 0.185756 0.569911
v 1.638674 0.268690 0.539820
v 1.710438 0.185756 0.450089
v 1.691643 0.233850 0.522524
v 0.295450 0.145000 0.750000
v 0.272725 0.145000 0.789361
v 0.227275 0.145000 0.789361
v 0.204550 0.145000 0.750000
v 0.227275 0.145000 0.710639
v 0.272725 0.145000 0.710639
v 0.250000 -0.016600 0.750000
v 0.250000 0.170000 0.750000
v 0.313024 0.185756 0.750000
v 0.250000 0.268690 0.846071
v 0.186976 0.185756 0.750000
v 0.250000 0.233850 0.790350
v 0.250000 0.170000 0.750000
v 0.269454 0.185756 0.690054
v 0.341379 0.268690 0.779654
v 0.230546 0.185756 0.809946
v 0.288379 0.233850 0.762455
v 0.250000 0.170000 0.750000
v 0.198986 0.185756 0.712992
v 0.306413 0.268690 0.672236
v 0.301014 0.185756 0.787008
v 0.273693 0.233850 0.717339
v 0.250000 0.170000 0.750000
v 0.199053 0.185756 0.787100
v 0.193446 0.268690 0.672339
v 0.300947 0.185756 0.712900
v 0.226248 0.233850 0.717382
v 0.250000 0.170000 0.750000
v 0.269562 0.185756 0.809911
v 0.158674 0.268690 0.779820
v 0.230438 0.185756 0.690089
v 0.211643 0.233850 0.762524
v 0.658250 0.145000 0.750000
v 0.639125 0.145000 0.783125
v 0.600875 0.145000 0.783125
v 0.581750 0.145000 0.750000
v 0.600875 0.145000 0.716875
v 0.639125 0.145000 0.716875
v 0.620000 0.009000 0.750000
v 0.620000 0.170000 0.750000
v 0.673040 0.183260 0.750000
v 0.620000 0.253056 0.830852
v 0.566960 0.183260 0.750000
v 0.620000 0.223735 0.783958
v 0.620000 0.170000 0.750000
v 0.636372 0.183260 0.699550
v 0.696904 0.253056 0.774957
v 0.603628 0.183260 0.800450
v 0.652299 0.223735 0.760482
v 0.620000 0.170000 0.750000
v 0.577067 0.183260 0.718855
v 0.667476 0.253056 0.684555
v 0.662933 0.183260 0.781145
v 0.639940 0.223735 0.722513
v 0.620000 0.170000 0.750000
v 0.577124 0.183260 0.781223
v 0.572405 0.253056 0.684641
v 0.662876 0.183260 0.718777
v 0.600010 0.223735 0.722549
v 0.620000 0.170000 0.750000
v 0.636463 0.183260 0.800420
v 0.543142 0.253056 0.775096
v 0.603537 0.183260 0.699580
v 0.587720 0.223735 0.760540
v 1.031850 0.145000 0.750000
v 1.010925 0.145000 0.786243
v 0.969075 0.145000 0.786243
v 0.948150 0.145000 0.750000
v 0.969075 0.145000 0.713757
v 1.010925 0.145000 0.713757
v 0.990000 -0.003800 0.750000
v 0.990000 0.170000 0.750000
v 1.048032 0.184508 0.750000
v 0.990000 0.260873 0.838461
v 0.931968 0.184508 0.750000
v 0.990000 0.228792 0.787154
v 0.990000 0.170000 0.750000
v 1.007913 0.184508 0.694802
v 1.074142 0.260873 0.777305
v 0.972087 0.184508 0.805198
v 1.025339 0.228792 0.761468
v 0.990000 0.170000 0.750000
v 0.943026 0.184508 0.715924
v 1.041944 0.260873 0.678396
v 1.036974 0.184508 0.784076
v 1.011817 0.228792 0.719926
v 0.990000 0.170000 0.750000
v 0.943088 0.184508 0.784161
v 0.937926 0.260873 0.678490
v 1.036912 0.184508 0.715839
v 0.968129 0.228792 0.719966
v 0.990000 0.170000 0.750000
v 1.008013 0.184508 0.805166
v 0.905908 0.260873 0.777458
v 0.971987 0.184508 0.694834
v 0.954681 0.228792 0.761532
v 1.405450 0.145000 0.750000
v 1.382725 0.145000 0.789361
v 1.337275 0.145000 0.789361
v 1.314550 0.145000 0.750000
v 1.337275 0.145000 0.710639
v 1.382725 0.145000 0.710639
v 1.360000 -0.016600 0.750000
v 1.360000 0.170000 0.750000
v 1.423024 0.185756 0.750000
v 1.360000 0.268690 0.846071
v 1.296976 0.185756 0.750000
v 1.360000 0.233850 0.790350
v 1.360000 0.170000 0.750000
v 1.379454 0.185756 0.690054
v 1.451379 0.268690 0.779654
v 1.340546 0.185756 0.809946
v 1.398379 0.233850 0.762455
v 1.360000 0.170000 0.750000
v 1.308986 0.185756 0.712992
v 1.416413 0.268690 0.672236
v 1.411014 0.185756 0.787008
v 1.383693 0.233850 0.717339
v 1.360000 0.170000 0.750000
v 1.309053 0.185756 0.787100
v 1.303446 0.268690 0.672339
v 1.410947 0.185756 0.712900
v 1.336248 0.233850 0.717382
v 1.360000 0.170000 0.750000
v 1.379562 0.185756 0.809911
v 1.268674 0.268690 0.779820
v 1.340438 0.185756 0.690089
v 1.321643 0.233850 0.762524
v 1.768250 0.145000 0.750000
v 1.749125 0.145000 0.783125
v 1.710875 0.145000 0.783125
v 1.691750 0.145000 0.750000
v 1.710875 0.145000 0.716875
v 1.749125 0.145000 0.716875
v 1.730000 0.009000 0.750000
v 1.730000 0.170000 0.750000
v 1.783040 0.183260 0.750000
v 1.730000 0.253056 0.830852
v 1.676960 0.183260 0.750000
v 1.730000 0.223735 0.783958
v 1.730000 0.170000 0.750000
v 1.746372 0.183260 0.699550
v 1.806904 0.253056 0.774957
v 1.713628 0.183260 0.800450
v 1.762299 0.223735 0.760482
v 1.730000 0.170000 0.750000
v 1.687067 0.183260 0.718855
v 1.777476 0.253056 0.684555
v 1.772933 0.183260 0.781145
v 1.749940 0.223735 0.722513
v 1.730000 0.170000 0.750000
v 1.687124 0.183260 0.781223
v 1.682405 0.253056 0.684641
v 1.772876 0.183260 0.718777
v 1.710010 0.223735 0.722549
v 1.730000 0.170000 0.750000
v 1.746463 0.183260 0.800420
v 1.653142 0.253056 0.775096
v 1.713537 0.183260 0.699580
v 1.697720 0.223735 0.760540
g soil
usemtl Soil_Mid
s off
f 1 2 6 5
f 2 3 7 6
f 3 4 8 7
f 4 1 5 8
f 5 6 10 9
f 6 7 11 10
f 7 8 12 11
f 8 5 9 12
f 9 10 11 12
f 1 4 3 2
g carrot_0_0_root
usemtl Carrot
s off
f 18 17 16 15 14 13
f 13 14 19
f 14 15 19
f 15 16 19
f 16 17 19
f 17 18 19
f 18 13 19
g carrot_0_0_leaf0
usemtl Leaf_Dark
s off
f 20 21 24
f 21 22 24
f 22 23 24
f 23 20 24
g carrot_0_0_leaf1
usemtl Leaf_Mid
s off
f 25 26 29
f 26 27 29
f 27 28 29
f 28 25 29
g carrot_0_0_leaf2
usemtl Leaf_Light
s off
f 30 31 34
f 31 32 34
f 32 33 34
f 33 30 34
g carrot_0_0_leaf3
usemtl Leaf_Dark
s off
f 35 36 39
f 36 37 39
f 37 38 39
f 38 35 39
g carrot_0_0_leaf4
usemtl Leaf_Mid
s off
f 40 41 44
f 41 42 44
f 42 43 44
f 43 40 44
g carrot_0_1_root
usemtl Carrot
s off
f 50 49 48 47 46 45
f 45 46 51
f 46 47 51
f 47 48 51
f 48 49 51
f 49 50 51
f 50 45 51
g carrot_0_1_leaf0
usemtl Leaf_Dark
s off
f 52 53 56
f 53 54 56
f 54 55 56
f 55 52 56
g carrot_0_1_leaf1
usemtl Leaf_Mid
s off
f 57 58 61
f 58 59 61
f 59 60 61
f 60 57 61
g carrot_0_1_leaf2
usemtl Leaf_Light
s off
f 62 63 66
f 63 64 66
f 64 65 66
f 65 62 66
g carrot_0_1_leaf3
usemtl Leaf_Dark
s off
f 67 68 71
f 68 69 71
f 69 70 71
f 70 67 71
g carrot_0_1_leaf4
usemtl Leaf_Mid
s off
f 72 73 76
f 73 74 76
f 74 75 76
f 75 72 76
g carrot_0_2_root
usemtl Carrot
s off
f 82 81 80 79 78 77
f 77 78 83
f 78 79 83
f 79 80 83
f 80 81 83
f 81 82 83
f 82 77 83
g carrot_0_2_leaf0
usemtl Leaf_Dark
s off
f 84 85 88
f 85 86 88
f 86 87 88
f 87 84 88
g carrot_0_2_leaf1
usemtl Leaf_Mid
s off
f 89 90 93
f 90 91 93
f 91 92 93
f 92 89 93
g carrot_0_2_leaf2
usemtl Leaf_Light
s off
f 94 95 98
f 95 96 98
f 96 97 98
f 97 94 98
g carrot_0_2_leaf3
usemtl Leaf_Dark
s off
f 99 100 103
f 100 101 103
f 101 102 103
f 102 99 103
g carrot_0_2_leaf4
usemtl Leaf_Mid
s off
f 104 105 108
f 105 106 108
f 106 107 108
f 107 104 108
g carrot_0_3_root
usemtl Carrot
s off
f 114 113 112 111 110 109
f 109 110 115
f 110 111 115
f 111 112 115
f 112 113 115
f 113 114 115
f 114 109 115
g carrot_0_3_leaf0
usemtl Leaf_Dark
s off
f 116 117 120
f 117 118 120
f 118 119 120
f 119 116 120
g carrot_0_3_leaf1
usemtl Leaf_Mid
s off
f 121 122 125
f 122 123 125
f 123 124 125
f 124 121 125
g carrot_0_3_leaf2
usemtl Leaf_Light
s off
f 126 127 130
f 127 128 130
f 128 129 130
f 129 126 130
g carrot_0_3_leaf3
usemtl Leaf_Dark
s off
f 131 132 135
f 132 133 135
f 133 134 135
f 134 131 135
g carrot_0_3_leaf4
usemtl Leaf_Mid
s off
f 136 137 140
f 137 138 140
f 138 139 140
f 139 136 140
g carrot_0_4_root
usemtl Carrot
s off
f 146 145 144 143 142 141
f 141 142 147
f 142 143 147
f 143 144 147
f 144 145 147
f 145 146 147
f 146 141 147
g carrot_0_4_leaf0
usemtl Leaf_Dark
s off
f 148 149 152
f 149 150 152
f 150 151 152
f 151 148 152
g carrot_0_4_leaf1
usemtl Leaf_Mid
s off
f 153 154 157
f 154 155 157
f 155 156 157
f 156 153 157
g carrot_0_4_leaf2
usemtl Leaf_Light
s off
f 158 159 162
f 159 160 162
f 160 161 162
f 161 158 162
g carrot_0_4_leaf3
usemtl Leaf_Dark
s off
f 163 164 167
f 164 165 167
f 165 166 167
f 166 163 167
g carrot_0_4_leaf4
usemtl Leaf_Mid
s off
f 168 169 172
f 169 170 172
f 170 171 172
f 171 168 172
g carrot_1_0_root
usemtl Carrot
s off
f 178 177 176 175 174 173
f 173 174 179
f 174 175 179
f 175 176 179
f 176 177 179
f 177 178 179
f 178 173 179
g carrot_1_0_leaf0
usemtl Leaf_Dark
s off
f 180 181 184
f 181 182 184
f 182 183 184
f 183 180 184
g carrot_1_0_leaf1
usemtl Leaf_Mid
s off
f 185 186 189
f 186 187 189
f 187 188 189
f 188 185 189
g carrot_1_0_leaf2
usemtl Leaf_Light
s off
f 190 191 194
f 191 192 194
f 192 193 194
f 193 190 194
g carrot_1_0_leaf3
usemtl Leaf_Dark
s off
f 195 196 199
f 196 197 199
f 197 198 199
f 198 195 199
g carrot_1_0_leaf4
usemtl Leaf_Mid
s off
f 200 201 204
f 201 202 204
f 202 203 204
f 203 200 204
g carrot_1_1_root
usemtl Carrot
s off
f 210 209 208 207 206 205
f 205 206 211
f 206 207 211
f 207 208 211
f 208 209 211
f 209 210 211
f 210 205 211
g carrot_1_1_leaf0
usemtl Leaf_Dark
s off
f 212 213 216
f 213 214 216
f 214 215 216
f 215 212 216
g carrot_1_1_leaf1
usemtl Leaf_Mid
s off
f 217 218 221
f 218 219 221
f 219 220 221
f 220 217 221
g carrot_1_1_leaf2
usemtl Leaf_Light
s off
f 222 223 226
f 223 224 226
f 224 225 226
f 225 222 226
g carrot_1_1_leaf3
usemtl Leaf_Dark
s off
f 227 228 231
f 228 229 231
f 229 230 231
f 230 227 231
g carrot_1_1_leaf4
usemtl Leaf_Mid
s off
f 232 233 236
f 233 234 236
f 234 235 236
f 235 232 236
g carrot_1_2_root
usemtl Carrot
s off
f 242 241 240 239 238 237
f 237 238 243
f 238 239 243
f 239 240 243
f 240 241 243
f 241 242 243
f 242 237 243
g carrot_1_2_leaf0
usemtl Leaf_Dark
s off
f 244 245 248
f 245 246 248
f 246 247 248
f 247 244 248
g carrot_1_2_leaf1
usemtl Leaf_Mid
s off
f 249 250 253
f 250 251 253
f 251 252 253
f 252 249 253
g carrot_1_2_leaf2
usemtl Leaf_Light
s off
f 254 255 258
f 255 256 258
f 256 257 258
f 257 254 258
g carrot_1_2_leaf3
usemtl Leaf_Dark
s off
f 259 260 263
f 260 261 263
f 261 262 263
f 262 259 263
g carrot_1_2_leaf4
usemtl Leaf_Mid
s off
f 264 265 268
f 265 266 268
f 266 267 268
f 267 264 268
g carrot_1_3_root
usemtl Carrot
s off
f 274 273 272 271 270 269
f 269 270 275
f 270 271 275
f 271 272 275
f 272 273 275
f 273 274 275
f 274 269 275
g carrot_1_3_leaf0
usemtl Leaf_Dark
s off
f 276 277 280
f 277 278 280
f 278 279 280
f 279 276 280
g carrot_1_3_leaf1
usemtl Leaf_Mid
s off
f 281 282 285
f 282 283 285
f 283 284 285
f 284 281 285
g carrot_1_3_leaf2
usemtl Leaf_Light
s off
f 286 287 290
f 287 288 290
f 288 289 290
f 289 286 290
g carrot_1_3_leaf3
usemtl Leaf_Dark
s off
f 291 292 295
f 292 293 295
f 293 294 295
f 294 291 295
g carrot_1_3_leaf4
usemtl Leaf_Mid
s off
f 296 297 300
f 297 298 300
f 298 299 300
f 299 296 300
g carrot_1_4_root
usemtl Carrot
s off
f 306 305 304 303 302 301
f 301 302 307
f 302 303 307
f 303 304 307
f 304 305 307
f 305 306 307
f 306 301 307
g carrot_1_4_leaf0
usemtl Leaf_Dark
s off
f 308 309 312
f 309 310 312
f 310 311 312
f 311 308 312
g carrot_1_4_leaf1
usemtl Leaf_Mid
s off
f 313 314 317
f 314 315 317
f 315 316 317
f 316 313 317
g carrot_1_4_leaf2
usemtl Leaf_Light
s off
f 318 319 322
f 319 320 322
f 320 321 322
f 321 318 322
g carrot_1_4_leaf3
usemtl Leaf_Dark
s off
f 323 324 327
f 324 325 327
f 325 326 327
f 326 323 327
g carrot_1_4_leaf4
usemtl Leaf_Mid
s off
f 328 329 332
f 329 330 332
f 330 331 332
f 331 328 332
g carrot_2_0_root
usemtl Carrot
s off
f 338 337 336 335 334 333
f 333 334 339
f 334 335 339
f 335 336 339
f 336 337 339
f 337 338 339
f 338 333 339
g carrot_2_0_leaf0
usemtl Leaf_Dark
s off
f 340 341 344
f 341 342 344
f 342 343 344
f 343 340 344
g carrot_2_0_leaf1
usemtl Leaf_Mid
s off
f 345 346 349
f 346 347 349
f 347 348 349
f 348 345 349
g carrot_2_0_leaf2
usemtl Leaf_Light
s off
f 350 351 354
f 351 352 354
f 352 353 354
f 353 350 354
g carrot_2_0_leaf3
usemtl Leaf_Dark
s off
f 355 356 359
f 356 357 359
f 357 358 359
f 358 355 359
g carrot_2_0_leaf4
usemtl Leaf_Mid
s off
f 360 361 364
f 361 362 364
f 362 363 364
f 363 360 364
g carrot_2_1_root
usemtl Carrot
s off
f 370 369 368 367 366 365
f 365 366 371
f 366 367 371
f 367 368 371
f 368 369 371
f 369 370 371
f 370 365 371
g carrot_2_1_leaf0
usemtl Leaf_Dark
s off
f 372 373 376
f 373 374 376
f 374 375 376
f 375 372 376
g carrot_2_1_leaf1
usemtl Leaf_Mid
s off
f 377 378 381
f 378 379 381
f 379 380 381
f 380 377 381
g carrot_2_1_leaf2
usemtl Leaf_Light
s off
f 382 383 386
f 383 384 386
f 384 385 386
f 385 382 386
g carrot_2_1_leaf3
usemtl Leaf_Dark
s off
f 387 388 391
f 388 389 391
f 389 390 391
f 390 387 391
g carrot_2_1_leaf4
usemtl Leaf_Mid
s off
f 392 393 396
f 393 394 396
f 394 395 396
f 395 392 396
g carrot_2_2_root
usemtl Carrot
s off
f 402 401 400 399 398 397
f 397 398 403
f 398 399 403
f 399 400 403
f 400 401 403
f 401 402 403
f 402 397 403
g carrot_2_2_leaf0
usemtl Leaf_Dark
s off
f 404 405 408
f 405 406 408
f 406 407 408
f 407 404 408
g carrot_2_2_leaf1
usemtl Leaf_Mid
s off
f 409 410 413
f 410 411 413
f 411 412 413
f 412 409 413
g carrot_2_2_leaf2
usemtl Leaf_Light
s off
f 414 415 418
f 415 416 418
f 416 417 418
f 417 414 418
g carrot_2_2_leaf3
usemtl Leaf_Dark
s off
f 419 420 423
f 420 421 423
f 421 422 423
f 422 419 423
g carrot_2_2_leaf4
usemtl Leaf_Mid
s off
f 424 425 428
f 425 426 428
f 426 427 428
f 427 424 428
g carrot_2_3_root
usemtl Carrot
s off
f 434 433 432 431 430 429
f 429 430 435
f 430 431 435
f 431 432 435
f 432 433 435
f 433 434 435
f 434 429 435
g carrot_2_3_leaf0
usemtl Leaf_Dark
s off
f 436 437 440
f 437 438 440
f 438 439 440
f 439 436 440
g carrot_2_3_leaf1
usemtl Leaf_Mid
s off
f 441 442 445
f 442 443 445
f 443 444 445
f 444 441 445
g carrot_2_3_leaf2
usemtl Leaf_Light
s off
f 446 447 450
f 447 448 450
f 448 449 450
f 449 446 450
g carrot_2_3_leaf3
usemtl Leaf_Dark
s off
f 451 452 455
f 452 453 455
f 453 454 455
f 454 451 455
g carrot_2_3_leaf4
usemtl Leaf_Mid
s off
f 456 457 460
f 457 458 460
f 458 459 460
f 459 456 460
g carrot_2_4_root
usemtl Carrot
s off
f 466 465 464 463 462 461
f 461 462 467
f 462 463 467
f 463 464 467
f 464 465 467
f 465 466 467
f 466 461 467
g carrot_2_4_leaf0
usemtl Leaf_Dark
s off
f 468 469 472
f 469 470 472
f 470 471 472
f 471 468 472
g carrot_2_4_leaf1
usemtl Leaf_Mid
s off
f 473 474 477
f 474 475 477
f 475 476 477
f 476 473 477
g carrot_2_4_leaf2
usemtl Leaf_Light
s off
f 478 479 482
f 479 480 482
f 480 481 482
f 481 478 482
g carrot_2_4_leaf3
usemtl Leaf_Dark
s off
f 483 484 487
f 484 485 487
f 485 486 487
f 486 483 487
g carrot_2_4_leaf4
usemtl Leaf_Mid
s off
f 488 489 492
f 489 490 492
f 490 491 492
f 491 488 492
