# raised_bed_2x1 modular low-poly farm bed
mtllib farm_beds_materials.mtl
o raised_bed_2x1
v 0.120000 0.055000 0.120000
v 1.880000 0.055000 0.120000
v 1.880000 0.305000 0.120000
v 0.120000 0.305000 0.120000
v 0.120000 0.055000 0.880000
v 1.880000 0.055000 0.880000
v 1.880000 0.305000 0.880000
v 0.120000 0.305000 0.880000
v 0.000000 0.030000 0.000000
v 2.000000 0.030000 0.000000
v 2.000000 0.370000 0.000000
v 0.000000 0.370000 0.000000
v 0.000000 0.030000 0.120000
v 2.000000 0.030000 0.120000
v 2.000000 0.370000 0.120000
v 0.000000 0.370000 0.120000
v 0.000000 0.030000 0.880000
v 2.000000 0.030000 0.880000
v 2.000000 0.370000 0.880000
v 0.000000 0.370000 0.880000
v 0.000000 0.030000 1.000000
v 2.000000 0.030000 1.000000
v 2.000000 0.370000 1.000000
v 0.000000 0.370000 1.000000
v 0.000000 0.030000 0.120000
v 0.120000 0.030000 0.120000
v 0.120000 0.370000 0.120000
v 0.000000 0.370000 0.120000
v 0.000000 0.030000 0.880000
v 0.120000 0.030000 0.880000
v 0.120000 0.370000 0.880000
v 0.000000 0.370000 0.880000
v 1.880000 0.030000 0.120000
v 2.000000 0.030000 0.120000
v 2.000000 0.370000 0.120000
v 1.880000 0.370000 0.120000
v 1.880000 0.030000 0.880000
v 2.000000 0.030000 0.880000
v 2.000000 0.370000 0.880000
v 1.880000 0.370000 0.880000
v 0.075000 0.000000 0.075000
v 0.205000 0.000000 0.075000
v 0.205000 0.500000 0.075000
v 0.075000 0.500000 0.075000
v 0.075000 0.000000 0.205000
v 0.205000 0.000000 0.205000
v 0.205000 0.500000 0.205000
v 0.075000 0.500000 0.205000
v 1.795000 0.000000 0.075000
v 1.925000 0.000000 0.075000
v 1.925000 0.500000 0.075000
v 1.795000 0.500000 0.075000
v 1.795000 0.000000 0.205000
v 1.925000 0.000000 0.205000
v 1.925000 0.500000 0.205000
v 1.795000 0.500000 0.205000
v 0.075000 0.000000 0.795000
v 0.205000 0.000000 0.795000
v 0.205000 0.500000 0.795000
v 0.075000 0.500000 0.795000
v 0.075000 0.000000 0.925000
v 0.205000 0.000000 0.925000
v 0.205000 0.500000 0.925000
v 0.075000 0.500000 0.925000
v 1.795000 0.000000 0.795000
v 1.925000 0.000000 0.795000
v 1.925000 0.500000 0.795000
v 1.795000 0.500000 0.795000
v 1.795000 0.000000 0.925000
v 1.925000 0.000000 0.925000
v 1.925000 0.500000 0.925000
v 1.795000 0.500000 0.925000
g soil
usemtl Soil_Mid
s off
f 1 4 3 2
f 5 6 7 8
f 1 2 6 5
f 4 8 7 3
f 2 3 7 6
f 1 5 8 4
g frame_front
usemtl Wood_Light
s off
f 9 12 11 10
f 13 14 15 16
f 9 10 14 13
f 12 16 15 11
f 10 11 15 14
f 9 13 16 12
g frame_back
usemtl Wood_Dark
s off
f 17 20 19 18
f 21 22 23 24
f 17 18 22 21
f 20 24 23 19
f 18 19 23 22
f 17 21 24 20
g frame_left
usemtl Wood_Dark
s off
f 25 28 27 26
f 29 30 31 32
f 25 26 30 29
f 28 32 31 27
f 26 27 31 30
f 25 29 32 28
g frame_right
usemtl Wood_Light
s off
f 33 36 35 34
f 37 38 39 40
f 33 34 38 37
f 36 40 39 35
f 34 35 39 38
f 33 37 40 36
g corner_post
usemtl Wood_Dark
s off
f 41 44 43 42
f 45 46 47 48
f 41 42 46 45
f 44 48 47 43
f 42 43 47 46
f 41 45 48 44
g corner_post
usemtl Wood_Dark
s off
f 49 52 51 50
f 53 54 55 56
f 49 50 54 53
f 52 56 55 51
f 50 51 55 54
f 49 53 56 52
g corner_post
usemtl Wood_Dark
s off
f 57 60 59 58
f 61 62 63 64
f 57 58 62 61
f 60 64 63 59
f 58 59 63 62
f 57 61 64 60
g corner_post
usemtl Wood_Dark
s off
f 65 68 67 66
f 69 70 71 72
f 65 66 70 69
f 68 72 71 67
f 66 67 71 70
f 65 69 72 68
